<svg width="409" height="371" viewBox="0 0 409 371" fill="none" xmlns="http://www.w3.org/2000/svg">
<path fill-rule="evenodd" clip-rule="evenodd" d="M113 1.04781C70.1012 6.35881 32.5592 32.8918 13.2572 71.5418C-4.25377 106.606 -4.12977 149.99 13.5812 185.16C31.5032 220.751 66.2312 246.65 105.484 253.7C118.753 256.084 139.803 255.822 152.734 253.113C169.233 249.656 185.265 243.095 197.693 234.714L202.887 231.211L207.092 234.811L211.297 238.41L216.515 232.529L221.734 226.648L226.411 230.48C229.077 232.665 231.437 233.923 231.9 233.406C236.389 228.397 250 211.776 250 211.304C250 210.967 248.2 209.151 246 207.268C243.8 205.385 242 203.539 242 203.165C242 202.791 244.038 200.014 246.529 196.993L251.058 191.5L246.958 187.648L242.858 183.795L245.924 176.148C257.312 147.743 258.241 115.044 248.472 86.4238C231.55 36.8478 185.054 2.49281 132.252 0.550812C125.788 0.313812 117.125 0.536806 113 1.04781ZM117.22 20.0898C93.6342 22.3198 71.3042 32.4028 54.0882 48.5988C43.3022 58.7458 36.9972 67.2698 30.4942 80.4998C24.2062 93.2918 21.3722 103.271 19.7762 118.242C17.8182 136.61 21.4632 156.807 29.9672 174.706C44.8662 206.065 74.8262 228.775 109.434 234.943C118.061 236.48 138.529 236.237 147.75 234.488C188.818 226.697 221.813 195.92 232.743 155.206C235.075 146.521 235.352 143.66 235.374 128C235.396 112.094 235.153 109.589 232.704 100.5C226.905 78.9728 213.109 57.6468 195.959 43.7018C185.822 35.4598 167.555 26.2258 155 22.9988C150.325 21.7968 145.5 20.5 145.5 20.5L142 20C137.495 19.112 124.699 19.3828 117.22 20.0898ZM251.854 229.539C244.509 238.159 238.129 245.859 237.676 246.65C236.712 248.331 252.212 264.938 287.424 299.949C304.023 316.454 310.297 322.103 311.116 321.284C311.936 320.464 311.507 319.22 309.497 316.585C306.18 312.236 307.502 311.849 310.92 316.169C312.875 318.639 313.123 319.573 312.213 321.03C311.243 322.584 312.29 324 319.794 331.28C334.413 345.463 362.083 370.481 363.515 370.81C366.249 371.439 371.734 367.457 381.028 358.096C386.268 352.818 393.182 344.978 396.392 340.672C402.236 332.836 409 320.98 409 318.575C409 317.4 391.388 303.183 371.269 288.116C365.006 283.426 362.494 282.089 360.759 282.524C357.477 283.348 353.35 279.321 353.866 275.796C354.095 274.233 271.967 216.46 266.573 214.389C265.711 214.059 260.29 219.638 251.854 229.539ZM281.75 231.833C282.712 232.842 283.677 233.528 283.893 233.357C284.483 232.892 281.886 230 280.878 230C280.395 230 280.788 230.825 281.75 231.833ZM279.5 234C280.495 235.1 281.469 236 281.663 236C281.858 236 281.455 235.1 280.768 234C280.081 232.9 279.107 232 278.604 232C278.102 232 278.505 232.9 279.5 234ZM275 234.393C275 234.609 275.675 235.045 276.5 235.362C277.325 235.678 278 235.501 278 234.969C278 234.436 277.325 234 276.5 234C275.675 234 275 234.177 275 234.393ZM275 236.941C275 238.608 277.139 239.264 278.337 237.966C279.228 237.001 279.208 236.871 278.25 237.412C277.563 237.8 277 237.641 277 237.059C277 236.477 276.55 236 276 236C275.45 236 275 236.423 275 236.941ZM271.998 240.376C273.373 241.179 274.685 241.648 274.915 241.418C275.536 240.797 274.785 240.324 272 239.583L269.5 238.917L271.998 240.376ZM269.463 242.883C269.98 244.512 269.869 245.037 269.107 244.566C268.498 244.19 268 244.359 268 244.941C268 246.424 269.539 246.26 270.89 244.633C271.757 243.587 271.635 242.942 270.368 241.891C268.885 240.66 268.79 240.763 269.463 242.883ZM264.5 246C265.495 247.1 266.469 248 266.663 248C266.858 248 266.455 247.1 265.768 246C265.081 244.9 264.107 244 263.604 244C263.102 244 263.505 244.9 264.5 246ZM260 246.383C260 246.594 260.901 247.002 262.001 247.29C263.102 247.578 263.751 247.405 263.442 246.907C262.904 246.036 260 245.594 260 246.383ZM259 248.378C259 248.585 259.788 249.373 260.75 250.128C262.336 251.371 262.371 251.336 261.128 249.75C259.821 248.084 259 247.555 259 248.378ZM258.5 251C259.495 252.1 260.535 253 260.81 253C261.085 253 260.495 252.1 259.5 251C258.505 249.9 257.465 249 257.19 249C256.915 249 257.505 249.9 258.5 251ZM253.357 253.412C254.08 254.5 255.308 255.554 256.086 255.753C256.878 255.957 256.731 255.629 255.75 255.008C253.364 253.498 253.536 251.645 256.001 252.29C257.102 252.578 257.755 252.412 257.452 251.922C257.149 251.432 255.808 251.121 254.472 251.232C252.286 251.413 252.175 251.63 253.357 253.412ZM290.104 291.145C319.707 320.406 361.738 359 364.001 359C365.977 359 373.841 353.079 376.322 349.723C380.457 344.13 380.418 343.746 375.941 346.03C368.654 349.747 366.45 349.233 356.428 341.477C330.269 321.233 315.046 308.735 315.551 307.918C315.863 307.413 315.364 307 314.442 307C312.944 307 297.003 294.238 276 276.223C271.875 272.685 278.222 279.4 290.104 291.145ZM356 279C357.97 281.766 361 283.092 361 281.188C361 280.342 355.536 276 354.472 276C354.138 276 354.825 277.35 356 279ZM346.362 281.5C345.593 283.504 346.627 286.004 348.219 285.985C349.112 285.974 349.046 285.681 348 285.015C346.76 284.226 346.718 283.709 347.758 282.031C348.543 280.765 348.625 280 347.977 280C347.405 280 346.678 280.675 346.362 281.5ZM353.918 283.847C354.598 285.117 354.547 286.053 353.753 286.847C352.897 287.703 352.893 288 353.741 288C354.369 288 355.163 287.546 355.506 286.991C356.322 285.67 355.14 282 353.897 282C353.281 282 353.289 282.671 353.918 283.847ZM338.676 284.25C339.112 284.938 339.476 285.752 339.485 286.061C339.493 286.37 341.134 288.057 343.132 289.811C346.79 293.023 349 293.847 349 292C349 291.45 348.663 291.053 348.25 291.118C346.223 291.438 345.086 290.78 343.51 288.374C342.087 286.202 342.023 285.586 343.145 284.809C344.088 284.155 343.816 284.061 342.25 284.502C340.927 284.874 340 284.695 340 284.067C340 283.48 339.523 283 338.941 283C338.337 283 338.223 283.537 338.676 284.25ZM335.539 289.957C332.482 293.335 335.272 296.529 339 293.919C340.187 293.088 340.048 292.995 338.334 293.475C335.453 294.282 334.173 292.078 336.524 290.359C337.531 289.623 338.122 288.788 337.838 288.504C337.553 288.22 336.519 288.874 335.539 289.957ZM330.083 294.845C329.304 296.301 329.728 297.408 332.097 300.095C333.989 302.242 334.708 302.689 334.043 301.306C333.464 300.099 332.505 298.812 331.914 298.447C331.322 298.081 331.108 296.706 331.438 295.391C332.152 292.545 331.463 292.267 330.083 294.845ZM341.653 294.537C341.977 295.383 341.4 297.023 340.371 298.183C338.519 300.269 338.523 300.279 340.75 299.11C342.995 297.932 344.029 293 342.031 293C341.499 293 341.328 293.692 341.653 294.537ZM323.2 300.2C321.316 302.084 321.78 304.445 324.545 307.042C327.199 309.536 329.806 309.083 330.851 305.946C331.183 304.952 330.822 305.035 329.632 306.225C328.702 307.155 327.252 307.65 326.409 307.327C325.147 306.843 325.329 306.266 327.436 304.067C329.424 301.992 329.728 301.128 328.798 300.198C327.264 298.664 324.735 298.665 323.2 300.2ZM323.385 301.439C323.081 302.231 323.235 303.598 323.727 304.477C324.525 305.903 324.814 305.863 326.409 304.101C327.392 303.015 327.9 301.648 327.539 301.063C326.589 299.526 324.03 299.758 323.385 301.439ZM314.554 304.281C314.885 305.142 315.795 306.091 316.577 306.391C317.36 306.692 318 307.433 318 308.04C318 310.068 320.972 312.144 323.248 311.706C325.414 311.289 325.419 311.267 323.365 311.136C320.447 310.95 317.249 306.134 319.145 304.78C320.149 304.062 320.014 303.97 318.623 304.423C317.591 304.759 316.118 304.513 315.35 303.876C314.24 302.954 314.077 303.037 314.554 304.281Z" fill="black"/>
<g clip-path="url(#clip0_186_12)">
<path fill-rule="evenodd" clip-rule="evenodd" d="M157.581 35.3965C156.223 35.8796 154.958 36.9692 153.921 38.5481C152.368 40.9142 149.844 46.739 147.915 52.4105C144.997 60.9881 143.855 66.6354 142.611 78.6213C142.432 80.3413 142.361 80.5156 141.714 80.8249C140.511 81.4 136.869 82.3041 132.545 83.1006C126.919 84.1368 124.678 84.829 121.224 86.5979C118.49 87.9978 113.306 91.4872 111.406 93.2067C106.757 97.4127 102.443 100.814 100.486 101.815C99.6275 102.254 99.4736 102.254 95.9803 101.823C92.0475 101.339 91.691 101.207 83.9632 97.3908C70.4927 90.7384 63.8956 88.374 58.5873 88.2957C56.2178 88.2608 55.179 88.6656 53.8473 90.1428C52.2372 91.9292 52.1218 92.424 52.1469 97.4434C52.1676 101.633 52.22 102.121 52.9381 104.81C54.2796 109.832 55.8611 113.273 59.1765 118.383C60.066 119.754 61.852 122.614 63.1454 124.739C64.4386 126.864 65.8039 129.051 66.1798 129.6C67.175 131.053 70.1969 137.197 71.2673 139.945C72.5072 143.128 74.3847 146.966 75.6018 148.806C77.2221 151.256 78.422 152.456 81.0572 154.259C83.8266 156.155 83.5776 155.695 84.1067 159.887C84.3674 161.951 84.497 162.347 85.1173 162.97C85.5086 163.363 85.8287 163.827 85.8287 164.001C85.8287 164.174 86.0929 164.49 86.4157 164.702C87.6082 165.485 87.7826 165.796 87.5667 166.757C87.3739 167.613 87.404 167.674 88.1815 168C88.6313 168.188 89.0544 168.554 89.122 168.814C89.1897 169.073 89.8755 169.646 90.6461 170.088C91.4167 170.53 92.0472 170.987 92.0472 171.103C92.0472 171.219 91.7114 171.388 91.301 171.478C90.8906 171.568 90.5548 171.743 90.5548 171.866C90.5548 172.149 91.7932 172.793 93.373 173.331L94.6 173.749L93.0128 175.011C91.0841 176.543 87.5246 179.78 87.2361 180.263C87.1209 180.456 87.0866 180.674 87.1597 180.747C87.2801 180.868 88.1873 180.252 92.5897 177.062C93.9202 176.098 94.0739 176.048 95.2134 176.205C95.8793 176.297 96.5643 176.459 96.7357 176.565C97.4548 177.01 96.3556 178.195 92.6255 180.995C88.7367 183.915 85.0895 187.135 85.3579 187.412C85.4409 187.498 86.1685 187.084 86.9747 186.492C87.7808 185.9 90.4874 183.976 92.9889 182.216L97.5374 179.017L99.0405 179.336C99.8671 179.512 100.786 179.855 101.084 180.098C101.617 180.534 101.618 180.549 101.166 181.368C100.914 181.824 99.8561 182.926 98.8157 183.817C93.3916 188.462 91.4211 190.799 90.4461 193.741C89.8513 195.535 90.0966 195.918 90.8679 194.4C91.8718 192.423 94.2908 189.31 96.0427 187.739C98.5294 185.51 103.109 182.322 103.826 182.322C104.17 182.322 104.767 182.446 105.152 182.597L105.852 182.873L105.044 183.265C104.191 183.68 103.981 184.067 104.609 184.067C104.814 184.067 104.982 184.131 104.982 184.21C104.982 184.288 103.998 185.438 102.796 186.765C99.1811 190.754 97.1588 193.857 96.028 197.151C95.5015 198.684 95.3214 201.923 95.7783 201.64C95.9151 201.556 96.027 201.219 96.027 200.893C96.027 200.169 97.1041 197.11 97.9578 195.409C99.2738 192.785 101.475 189.823 104.048 187.213L106.72 184.502L107.971 184.622C109.201 184.74 109.849 185.036 109.308 185.231C108.749 185.433 108.248 185.949 108.17 186.402C108.103 186.798 108.29 186.999 109.176 187.481C109.226 187.508 108.313 188.967 107.147 190.722C104.954 194.024 102.137 199.319 102.305 199.824C102.357 199.983 102.897 199.309 103.505 198.327C105.225 195.544 108.306 191.073 109.635 189.431L110.841 187.94L113.695 188.014C115.714 188.066 116.841 187.983 117.549 187.729C118.901 187.243 121.647 186.932 121.647 187.264C121.647 187.405 120.752 187.886 119.657 188.335C118.563 188.783 117.667 189.236 117.667 189.341C117.667 189.625 119.246 189.982 121.887 190.293C123.181 190.446 124.283 190.614 124.335 190.666C124.387 190.718 124.083 190.94 123.66 191.159C123.237 191.378 122.891 191.658 122.891 191.781C122.891 192.041 124.08 192.449 125.503 192.676C127.48 192.992 127.504 193.015 126.604 193.768C125.358 194.811 125.773 195.138 128.087 194.936C129.128 194.845 130.4 194.706 130.913 194.626C131.426 194.547 131.846 194.583 131.846 194.707C131.846 194.83 131.286 195.595 130.602 196.406C129.221 198.042 129.129 198.275 129.861 198.275C130.156 198.275 130.481 198.533 130.647 198.898C131.004 199.684 131.46 199.685 132.481 198.905C133.239 198.326 133.333 198.311 134.029 198.659C135.016 199.152 135.426 198.951 136.232 197.573C136.603 196.938 136.939 196.527 136.979 196.661C137.018 196.795 137.153 198.26 137.278 199.917C137.544 203.423 137.948 204.539 139.614 206.376L140.744 207.623L141.456 206.906C142.139 206.22 142.171 206.212 142.248 206.72C142.291 207.011 142.418 207.249 142.529 207.249C142.641 207.249 142.812 208.111 142.911 209.164C143.009 210.218 143.245 211.678 143.435 212.409C144.272 215.63 146.521 218.307 146.521 216.084C146.521 215.137 146.814 215.361 147.889 217.129C148.786 218.603 150.308 220.211 150.806 220.211C150.912 220.211 150.998 219.987 150.998 219.713C150.998 218.837 151.384 219.176 151.843 220.454C152.087 221.136 152.716 222.174 153.24 222.76C154.094 223.716 154.245 223.794 154.706 223.514C155.614 222.964 155.973 223.122 155.973 224.073C155.973 225.567 158.9 232.674 159.516 232.675C159.617 232.675 159.84 232.451 160.011 232.177C160.182 231.903 160.388 231.678 160.468 231.678C160.549 231.678 160.962 232.215 161.386 232.87C161.81 233.526 162.379 234.264 162.651 234.51C163.119 234.934 163.178 234.936 163.795 234.531C164.563 234.026 164.618 234.067 165.425 235.745C165.954 236.843 166.145 237.031 166.696 236.995C167.284 236.957 167.382 237.088 167.743 238.389C167.962 239.178 168.364 240.094 168.636 240.425L169.131 241.026L169.531 240.465C169.751 240.157 170.12 239.907 170.352 239.911C170.89 239.92 172.318 241.009 173.367 242.21C173.816 242.724 174.41 243.145 174.686 243.145C175.119 243.145 176.061 243.825 177.63 245.27C177.926 245.542 178.09 245.559 178.309 245.34C178.606 245.042 178.809 245.418 180.02 248.504C180.557 249.874 181.412 250.304 181.998 249.5C182.453 248.877 182.716 249.188 183.067 250.763C183.724 253.704 184.323 254.398 185.379 253.44C185.82 253.041 185.893 253.041 186.643 253.452C187.081 253.692 188.222 254.623 189.18 255.522C190.138 256.42 191.229 257.375 191.605 257.645L192.289 258.135V249.425V240.714L191.518 240.56C191.093 240.475 190.309 240.475 189.776 240.56C188.568 240.754 188.514 240.409 189.585 239.335C190.017 238.902 190.239 238.513 190.083 238.461C189.55 238.283 189.805 237.918 190.859 237.354L191.916 236.788L190.946 236.709C190.301 236.656 189.499 236.844 188.552 237.27C187.055 237.943 185.85 238.088 185.411 237.648C185.267 237.503 184.825 237.343 184.429 237.291C184.032 237.239 183.677 237.189 183.639 237.179C183.601 237.17 183.744 236.826 183.956 236.414L184.342 235.667H183.266C181.749 235.667 181.42 235.253 182.248 234.386C183.234 233.354 182.912 232.925 181.153 232.925C180.356 232.925 179.571 233.057 179.409 233.219C178.913 233.716 178.747 233.21 179.23 232.675C179.805 232.039 179.615 231.841 178.747 232.171C177.78 232.54 177.566 232.294 177.754 231.033C177.934 229.831 177.915 229.818 176.556 230.196C176.037 230.34 175.458 230.363 175.253 230.248C174.94 230.073 174.981 229.896 175.514 229.11C176.338 227.894 176.127 227.592 174.594 227.795C173.509 227.94 173.312 227.889 172.739 227.314L172.098 226.672L172.742 225.826C173.596 224.704 173.554 224.449 172.514 224.449C172.036 224.449 171.644 224.364 171.644 224.26C171.644 224.157 172.175 223.743 172.825 223.341C174.449 222.336 173.744 222.279 171.037 223.197C167.862 224.273 167.333 224.21 168.581 222.905L169.249 222.206L168.643 222.204C168.31 222.204 167.508 222.393 166.861 222.625C165.57 223.089 165.018 222.913 165.876 222.31C166.617 221.79 166.576 221.209 165.798 221.209C165.433 221.209 165.177 221.066 165.177 220.861C165.177 220.67 165.009 220.45 164.804 220.371C164.187 220.134 164.378 219.526 165.301 218.789C165.78 218.406 166.172 217.993 166.172 217.872C166.172 217.75 165.689 217.717 165.099 217.798C164.509 217.879 163.807 217.888 163.538 217.818C162.972 217.67 162.337 215.987 162.705 215.612C162.833 215.482 162.938 215.181 162.938 214.944C162.938 214.706 163.274 214.272 163.685 213.979C164.095 213.686 164.556 213.213 164.709 212.927C164.98 212.419 164.95 212.411 163.49 212.563L161.993 212.72L161.595 211.879C161.376 211.416 161.197 210.862 161.197 210.648C161.197 210.322 160.753 210.246 158.523 210.187C155.94 210.118 155.851 210.097 155.905 209.57C155.952 209.123 155.817 209.011 155.159 208.947C154.552 208.888 154.374 208.762 154.43 208.43C154.471 208.188 154.331 207.924 154.119 207.842C153.551 207.624 153.649 207.212 154.419 206.595C154.795 206.294 155.022 205.966 154.924 205.867C154.826 205.768 153.787 205.888 152.614 206.135C149.904 206.705 149.417 206.407 151.23 205.29C153.149 204.106 152.894 203.686 150.665 204.358C149.414 204.735 149.219 204.596 150.004 203.884C150.663 203.285 150.632 203.056 149.908 203.194C149.101 203.349 148.96 203.007 149.359 201.862C149.791 200.622 150.242 198.681 150.125 198.563C150.076 198.514 149.16 198.765 148.091 199.122C147.021 199.479 146.044 199.771 145.919 199.771C145.794 199.771 146.093 199.37 146.582 198.879C147.413 198.047 147.957 196.889 147.659 196.59C147.587 196.518 146.851 196.604 146.024 196.78C144.361 197.133 143.993 197.014 144.616 196.325C145.157 195.725 145.137 195.533 144.531 195.533C143.861 195.533 143.9 194.878 144.593 194.49C144.901 194.318 145.988 193.884 147.008 193.526C148.625 192.958 148.887 192.781 149.052 192.143C149.231 191.453 151.116 189.334 151.344 189.567C151.403 189.626 151.333 190.271 151.189 190.998C150.774 193.095 151.182 193.128 153.026 191.146C155.616 188.362 155.718 188.271 156.005 188.448C156.174 188.554 156.226 189.016 156.139 189.651C155.799 192.143 156.927 191.613 158.252 188.659C158.709 187.642 159.159 186.809 159.252 186.809C159.5 186.808 159.726 187.645 160.056 189.779C160.265 191.135 160.45 191.669 160.71 191.669C161.174 191.669 162.832 188.51 163.272 186.785C163.458 186.058 163.74 185.419 163.9 185.366C164.059 185.312 164.355 185.671 164.558 186.163C164.761 186.655 165.096 187.464 165.301 187.961C165.813 189.199 166.167 188.837 167.067 186.156C167.464 184.975 167.934 183.951 168.112 183.881C168.29 183.811 168.7 184.003 169.023 184.308L169.611 184.861L169.912 184.298C170.1 183.946 170.164 183.188 170.082 182.281C170.009 181.481 170.038 180.772 170.145 180.705C170.253 180.639 170.774 180.929 171.303 181.352C172.121 182.004 172.279 182.055 172.352 181.693C172.526 180.828 172.094 179.054 171.566 178.468C170.925 177.756 168.226 176.587 167.236 176.592C166.042 176.599 165.754 176.933 166.124 177.886C166.701 179.372 166.881 179.282 164.13 178.877L162.71 178.668L162.863 179.786C163.027 180.985 162.982 181.008 161.593 180.438C161.151 180.257 161.128 180.334 161.27 181.532C161.416 182.768 161.398 182.82 160.824 182.82C160.496 182.82 160.118 182.625 159.984 182.386C159.552 181.611 159.466 182.188 159.815 183.517C160.022 184.302 160.06 184.814 159.912 184.814C159.777 184.814 159.004 184.18 158.194 183.405L156.719 181.997V183.779C156.719 185.756 156.618 185.848 155.323 185.046C154.865 184.762 154.376 184.601 154.237 184.687C154.097 184.773 153.983 185.454 153.983 186.2C153.983 186.946 153.9 187.556 153.797 187.555C153.694 187.554 153.218 186.861 152.74 186.016C152.261 185.171 151.742 184.438 151.588 184.387C151.428 184.334 151.236 184.703 151.142 185.24C150.94 186.405 150.502 187.556 150.261 187.556C150.162 187.556 149.879 187.334 149.634 187.062C149.189 186.57 149.18 186.571 147.937 187.248C147.16 187.672 146.652 187.826 146.595 187.654C146.545 187.502 146.357 187.178 146.179 186.933C145.88 186.524 145.79 186.57 145.027 187.521C144.572 188.089 144.106 188.554 143.992 188.554C143.878 188.554 143.782 188.077 143.777 187.494C143.773 186.912 143.617 186.234 143.432 185.989C143.118 185.574 142.954 185.65 141.083 187.062C139.976 187.898 139.006 188.687 138.926 188.817C138.694 189.193 138.313 189.089 138.313 188.649C138.313 188.241 137.763 188.25 136.753 188.675C136.35 188.844 136.326 188.736 136.479 187.432C136.646 186.009 136.644 186.004 136.049 186.188C135.721 186.29 134.976 186.651 134.395 186.989C133.186 187.692 133.074 187.569 133.96 186.514C134.58 185.775 134.748 185.312 134.395 185.314C134.292 185.314 133.541 185.718 132.725 186.211C131.835 186.749 130.552 187.251 129.517 187.467C128.568 187.666 127.585 187.939 127.331 188.075C127.078 188.211 126.871 188.231 126.871 188.121C126.871 188.01 127.265 187.706 127.747 187.446C128.807 186.874 131.066 184.512 130.677 184.382C130.524 184.332 129.646 184.632 128.725 185.051C127.804 185.469 127.011 185.811 126.962 185.811C126.914 185.811 127.269 185.293 127.753 184.658C128.236 184.023 128.572 183.445 128.5 183.373C128.427 183.3 127.918 183.444 127.368 183.693C126.818 183.941 126.309 184.085 126.236 184.012C126.164 183.94 126.336 183.487 126.619 183.006L127.133 182.132L126.178 181.749C125.55 181.497 123.909 181.31 121.383 181.202C119.271 181.111 117.397 180.991 117.219 180.934C116.773 180.793 119.531 177.543 120.652 176.889C121.454 176.421 121.579 176.411 122.239 176.759C122.892 177.103 123.087 177.093 124.477 176.637C125.315 176.362 126.644 176.058 127.43 175.96C128.217 175.863 128.861 175.698 128.861 175.593C128.861 175.361 127.081 174.597 124.802 173.851C122.877 173.221 122.891 173.307 124.377 171.113C125.916 168.842 125.66 168.471 123.817 170.301C122.464 171.645 122.132 171.852 121.33 171.852C120.554 171.852 120.404 171.767 120.404 171.327C120.404 171.038 120.749 170.365 121.171 169.831C121.592 169.297 121.874 168.861 121.796 168.861C121.718 168.861 120.729 169.413 119.599 170.088C117.647 171.254 114.814 172.316 114.5 172.001C114.278 171.779 114.88 169.973 115.369 169.394C115.827 168.853 118.266 167.721 122.767 165.962C124.271 165.373 125.261 164.888 124.965 164.882C124.126 164.867 120.985 165.53 118.725 166.2C117.596 166.535 116.672 166.769 116.672 166.72C116.672 166.384 117.903 163.946 118.187 163.721C118.38 163.567 119.825 163.074 121.398 162.624C122.972 162.174 124.371 161.697 124.508 161.563C124.761 161.315 122.24 161.447 120.341 161.782C119.8 161.877 119.409 161.846 119.409 161.708C119.409 161.335 121.605 158.588 122.478 157.868C124.054 156.571 125.378 156.228 125.378 157.118C125.378 157.69 126.676 159.139 127.189 159.139C127.828 159.139 128.182 158.456 128.012 157.55C127.871 156.794 127.921 156.686 128.479 156.546C128.822 156.46 129.314 156.521 129.571 156.682C129.828 156.842 130.221 156.904 130.445 156.818C130.89 156.647 131.002 155.523 130.598 155.273C130.459 155.187 130.409 155.012 130.488 154.884C130.747 154.464 131.546 154.641 132.314 155.289C132.945 155.821 133.156 155.88 133.593 155.646C134.011 155.422 134.084 155.219 133.956 154.635C133.802 153.932 133.83 153.904 134.694 153.904C135.679 153.904 136.09 153.381 135.649 152.686C135.47 152.402 135.023 152.284 134.127 152.284C133.294 152.284 132.723 152.146 132.458 151.882C132.088 151.512 132.174 151.255 133.541 148.642C134.358 147.08 135.164 145.354 135.332 144.806C135.794 143.296 136.004 143.269 135.883 144.735C135.795 145.799 135.864 146.135 136.241 146.477C137.006 147.17 141.088 148.63 145.177 149.673C149.329 150.731 150.039 151.017 151.06 152.039C151.849 152.83 152.091 153.873 151.948 155.859C151.854 157.167 151.655 157.587 149.778 160.46C147.106 164.548 145.842 165.671 143.455 166.08C142.564 166.232 142.417 166.345 142.417 166.874C142.417 167.458 142.501 167.494 144.025 167.565C145.801 167.649 147.236 167.218 148.262 166.292C148.604 165.984 149.693 164.762 150.683 163.578C154.405 159.119 156.807 157.916 164.555 156.629C166.196 156.357 167.853 156.008 168.237 155.856C169.044 155.534 169.903 154.028 169.903 152.935C169.903 151.393 168.39 150.891 167.476 152.13C166.532 153.409 165.171 153.857 161.252 154.176C157.184 154.507 156.198 154.303 154.79 152.842C153.364 151.363 153.283 150.362 154.152 144.988C154.842 140.721 154.987 140.178 155.692 139.202C156.801 137.668 156.696 135.893 155.417 134.524C154.774 133.836 155.005 133.511 155.779 134.016C156.091 134.219 156.79 134.468 157.333 134.569C158.746 134.832 159.573 135.324 160.456 136.425C161.2 137.352 161.314 137.401 163.376 137.667C165.886 137.992 166.348 137.814 167.168 136.202C167.447 135.656 167.711 135.209 167.755 135.209C167.8 135.209 168.185 135.383 168.612 135.596C169.702 136.141 170.4 135.744 170.4 134.577C170.4 133.903 170.501 133.713 170.859 133.713C171.112 133.713 171.521 133.937 171.768 134.211C172.337 134.841 172.756 134.841 173.385 134.211C173.659 133.937 174.114 133.713 174.397 133.713C175.25 133.713 174.925 132.65 174.007 132.436C173.596 132.34 172.592 131.978 171.774 131.631L170.288 131.001L171.028 130.73C171.435 130.581 172.048 130.354 172.39 130.226C173.271 129.896 176.645 129.474 178.316 129.484C179.092 129.489 180.008 129.653 180.35 129.849C180.692 130.045 181.273 130.209 181.641 130.214C182.498 130.226 182.746 130.632 182.24 131.193C182.021 131.435 181.842 131.751 181.842 131.894C181.842 132.222 183.029 132.467 184.617 132.467C185.845 132.467 187.367 132.943 187.661 133.42C187.747 133.561 187.146 134.149 186.323 134.728C185.5 135.306 184.827 135.875 184.827 135.993C184.827 136.306 184.931 136.276 186.732 135.458C187.638 135.047 188.529 134.71 188.712 134.71C189.703 134.71 189.133 137.827 188.041 138.38C187.71 138.547 185.944 139.16 184.117 139.742C180.637 140.851 179.434 141.426 180.598 141.423C180.94 141.422 182.619 141.101 184.33 140.71C186.04 140.318 187.48 140.037 187.531 140.084C187.582 140.133 187.332 140.671 186.974 141.281C186.337 142.372 186.294 142.396 184.519 142.675C181.574 143.137 179.126 143.699 178.972 143.949C178.771 144.275 180.321 144.226 182.961 143.823C184.193 143.635 185.244 143.524 185.297 143.576C185.42 143.695 184.239 145.302 183.251 146.36C182.837 146.803 182.564 147.232 182.644 147.313C182.894 147.563 184.127 146.783 186.024 145.175L187.843 143.634L190.066 143.81L192.289 143.986V143.36C192.289 142.769 192.19 142.722 190.489 142.524L188.688 142.313L190.489 140.414L192.289 138.516V132.484C192.289 128.962 192.186 126.258 192.042 125.988C191.696 125.34 189.462 124.116 187.693 123.605C186.429 123.239 185.612 123.201 182.259 123.349C179.441 123.473 178.36 123.445 178.479 123.252C178.571 123.103 179.548 122.526 180.651 121.971C182.347 121.116 182.603 120.908 182.311 120.623C182.036 120.354 181.546 120.334 179.879 120.524C178.73 120.655 177.723 120.693 177.64 120.609C177.472 120.44 178.502 119.532 179.888 118.628C181.531 117.555 182.319 115.769 182.35 113.052C182.36 112.152 182.36 112.152 182.696 112.774C182.881 113.117 183.176 113.88 183.352 114.471C183.531 115.075 183.897 115.663 184.187 115.813C184.471 115.961 184.732 116.106 184.768 116.135C184.804 116.163 184.667 116.586 184.464 117.073C183.909 118.404 184.33 118.613 186.335 118.002C188.267 117.413 188.181 117.417 188.665 117.902C188.91 118.147 189.056 118.733 189.056 119.472C189.056 120.72 189.367 121.249 190.1 121.249C190.609 121.249 190.692 121.753 190.255 122.191C190.029 122.417 190.034 122.621 190.274 123.071C190.55 123.588 191.737 124.49 192.141 124.49C192.223 124.49 192.289 121.964 192.289 118.876V113.263L191.667 113.419C191.092 113.564 191.046 113.51 191.046 112.69C191.046 112.067 190.887 111.694 190.511 111.43C189.998 111.07 189.994 111.029 190.398 110.41C190.63 110.055 191.134 109.702 191.517 109.626C192.203 109.488 192.216 109.453 192.234 107.687L192.253 105.888L191.151 105.593C189.843 105.242 189.762 104.952 190.859 104.547L191.667 104.249L189.553 103.223L187.439 102.198L188.434 102.127C188.981 102.088 190.059 101.931 190.829 101.779L192.229 101.501L192.383 100.372C192.469 99.7514 192.516 97.9409 192.488 96.3491C192.45 94.1143 192.419 93.8802 192.352 95.3213C192.284 96.7803 192.154 97.3065 191.755 97.7315C191.01 98.5267 188.92 99.3498 187.265 99.5004C185.695 99.643 185.422 99.3885 186.382 98.677C186.921 98.2774 186.89 98.268 185.535 98.4131C184.762 98.4958 183.419 98.787 182.551 99.0597C180.835 99.5986 179.958 99.6866 179.745 99.3411C179.67 99.2197 179.776 98.9816 179.979 98.8121C180.183 98.6426 180.35 98.4228 180.35 98.3233C180.35 98.2236 179.173 98.0703 177.735 97.9821C175.075 97.8188 172.961 97.2365 173.598 96.8421C174.094 96.5353 171.458 94.976 169.588 94.4695C167.222 93.8286 167.191 93.8072 168.16 93.4672L169.029 93.1623L167.414 92.6436C165.643 92.0752 163.962 91.6991 162.104 91.456L160.898 91.298L161.716 90.8807C162.842 90.3071 162.937 89.8405 161.928 89.8405C161.487 89.8405 160.386 89.6253 159.482 89.3626C158.579 89.0996 157.363 88.8092 156.782 88.7175C156.2 88.6255 155.725 88.5103 155.725 88.4612C155.725 88.4124 156.256 87.864 156.906 87.2425C158.185 86.0201 158.023 85.8386 156.222 86.4753C155.64 86.6809 155.011 86.8492 154.823 86.8492C154.272 86.8492 154.429 86.4541 155.103 86.1467C155.987 85.7426 155.873 85.4009 154.792 85.2199C152.953 84.9116 151.299 84.3517 151.16 83.9905C151.083 83.7883 151.306 82.9951 151.657 82.2279C152.32 80.7766 152.767 78.5368 152.302 78.997C152.163 79.1341 151.699 79.8071 151.269 80.4926L150.489 81.739L150.539 77.8072C150.575 74.9886 150.503 73.7896 150.286 73.5718C149.801 73.0857 149.614 73.6291 148.802 77.8952C148.131 81.4145 147.555 83.11 147.029 83.11C146.558 83.11 146.262 81.0907 146.508 79.5636C146.647 78.7036 146.993 74.859 147.277 71.0202C148.064 60.3704 148.172 59.81 151.06 51.3274C152.51 47.0696 153.489 44.9248 154.985 42.7274C156.146 41.0219 156.843 40.3655 158.021 39.8727C159.418 39.2877 160.097 39.3969 161.655 40.457C163.301 41.5773 164.439 42.7768 165.789 44.8149C166.315 45.6098 168.048 47.6247 169.639 49.2923C173.529 53.369 176.169 57.3798 180.112 65.2018C182.357 69.6554 183.861 73.1223 185.416 77.4278C186.403 80.1609 186.924 81.236 188.136 83.0385C188.616 83.7532 189.199 84.931 189.431 85.6559C190.374 88.6033 191.873 92.7226 192.088 92.9564C192.229 93.109 192.288 91.2726 192.241 88.2202L192.165 83.2347L190.739 80.7419C189.954 79.3709 188.541 76.3422 187.599 74.0115C185.197 68.0715 185.075 67.8078 182.41 62.7941C177.09 52.7869 177.42 53.2748 172.98 48.8469C169.833 45.7083 168.604 44.2829 167.278 42.2314C165.437 39.3834 162.365 36.0994 160.91 35.4224C159.83 34.9199 158.94 34.9129 157.581 35.3965ZM159.964 43.2716C158.921 44.3941 156.368 49.1385 154.861 52.7553C154.344 53.9957 154.232 54.5172 154.432 54.758C154.628 54.9955 154.536 55.8478 154.09 57.917C153.753 59.4755 153.521 60.7932 153.572 60.8453C153.624 60.8971 154.021 59.8988 154.453 58.6265C156.237 53.3735 157.444 50.7528 158.194 50.5023C158.538 50.3877 158.507 50.9553 158.078 52.6984C157.962 53.1663 158.347 52.8699 159.623 51.5082C161.956 49.0169 162.276 49.1074 162.018 52.1857C161.928 53.266 161.965 53.9448 162.114 53.9448C162.248 53.9448 162.717 53.4961 163.157 52.9477C163.597 52.3993 164.063 51.9506 164.193 51.9506C164.327 51.9506 164.43 52.9844 164.43 54.3187C164.43 55.8343 164.526 56.6869 164.697 56.6869C164.843 56.6869 165.469 56.3381 166.087 55.9116C167.617 54.8569 167.861 55.1281 167.466 57.4402C167.301 58.4019 167.167 59.4817 167.167 59.8397C167.167 60.4876 167.173 60.4895 168.657 60.3213L170.148 60.1523L169.886 60.85C169.742 61.2336 169.34 62.132 168.993 62.8462C168.646 63.5601 168.401 64.2539 168.448 64.3875C168.497 64.5238 168.97 64.4229 169.53 64.1569C171.568 63.1867 171.616 63.5953 169.852 66.9328C169.141 68.2799 168.646 69.4697 168.753 69.5771C168.86 69.6846 169.47 69.462 170.109 69.0826C172.148 67.8713 174.356 66.8628 174.615 67.0236C175.052 67.294 174.038 69.4737 171.859 72.9466C169.953 75.9848 167.415 80.6759 167.415 81.162C167.415 81.5984 167.985 81.2971 170.566 79.4955C174.364 76.8433 174.652 76.9661 172.609 80.368C171.161 82.78 170.791 83.6086 171.161 83.6086C171.299 83.6086 172.377 82.8795 173.556 81.9883C176.548 79.7266 176.813 79.8296 175.035 82.5624C173.855 84.3769 172.046 87.8463 172.281 87.8463C172.36 87.8463 173.649 86.6041 175.144 85.086C178.005 82.1807 178.173 82.1364 177.603 84.4329C177.461 85.0078 177.377 87.1608 177.417 89.2173L177.489 92.9564L178.36 91.7377C178.839 91.0674 179.553 90.0661 179.948 89.5124C180.623 88.5657 180.685 88.5335 181.005 88.9715C181.192 89.2278 181.345 89.9113 181.345 90.4908C181.345 91.0704 181.413 91.722 181.496 91.9389C181.75 92.6042 182.546 92.3901 182.986 91.538C183.373 90.7875 183.415 90.7688 183.735 91.2072C183.922 91.463 184.147 92.0732 184.235 92.5636C184.47 93.8745 184.752 94.3005 185.29 94.1594C185.694 94.0535 185.79 94.2384 185.977 95.4905C186.224 97.1412 186.595 97.3384 187.404 96.2513C187.776 95.7525 187.946 95.0877 188.01 93.8832C188.095 92.2746 188.044 92.0967 186.705 89.3753C185.647 87.2261 184.937 86.1524 183.763 84.9278L182.215 83.3134L182.061 79.2857C181.852 73.8532 181.527 72.8738 176.287 61.8566C175.279 59.7365 174.484 58.3729 174.207 58.2864C173.216 57.9773 172.946 57.6269 171.149 54.3125C170.121 52.4178 169.16 50.8279 169.013 50.7795C168.865 50.7309 168.616 50.9747 168.458 51.3209C168.301 51.6672 168.067 51.9506 167.939 51.9506C167.631 51.9506 166.305 50.0878 164.718 47.4268C163.329 45.0975 161.358 42.7274 160.81 42.7274C160.623 42.7274 160.242 42.9722 159.964 43.2716ZM132.467 88.0955C132.368 88.4096 132.091 88.5941 131.719 88.5941C131.394 88.5941 131.053 88.717 130.96 88.8673C130.867 89.0176 130.46 89.0917 130.054 89.0321C129.44 88.9418 129.274 89.0323 129.069 89.569C128.902 90.0047 128.909 90.507 129.09 91.1158C129.237 91.6116 129.358 92.4247 129.358 92.923C129.358 93.6439 129.263 93.8289 128.89 93.8289C128.195 93.8289 128.083 94.7133 128.677 95.5085C129.401 96.4772 130.919 98.0666 131.12 98.0666C131.212 98.0666 131.178 97.5508 131.044 96.9204C130.756 95.5663 131.009 95.1251 131.824 95.5623C132.622 95.9903 132.83 95.6865 132.67 94.3284C132.562 93.4166 132.63 92.9352 132.931 92.4746C133.155 92.1323 133.338 91.5752 133.338 91.2369C133.338 90.7513 133.482 90.6047 134.02 90.5424C134.981 90.4313 134.985 89.8377 134.033 88.6467C133.118 87.5035 132.701 87.3567 132.467 88.0955ZM151.869 90.5883C151.185 91.1215 150.539 91.564 150.434 91.5714C150.328 91.5792 150.114 91.305 149.958 90.9622C149.803 90.6195 149.584 90.339 149.472 90.339C148.723 90.339 147.018 96.1987 146.808 99.4949L146.646 102.045L145.535 101.163C144.536 100.369 144.406 100.326 144.246 100.731C144.149 100.98 144.061 101.597 144.051 102.103C144.032 103.136 143.65 103.531 143.165 103.019C142.987 102.832 142.268 101.22 141.568 99.4376C140.343 96.3196 138.429 92.9796 138.015 93.2364C137.905 93.3042 137.815 93.6895 137.815 94.0929C137.815 94.573 137.689 94.826 137.448 94.826C137.16 94.826 137.132 94.9591 137.318 95.4492C137.569 96.1115 137.361 96.2653 136.874 95.7775C136.275 95.1765 136.307 95.8084 136.927 96.7918C137.771 98.1311 137.735 98.4701 136.82 97.8173C135.887 97.1512 135.84 97.5565 136.689 98.939C137.406 100.105 137.536 100.802 136.945 100.31C136.482 99.9249 136.48 100.159 136.937 101.432C137.43 102.803 137.403 103.238 136.804 103.56C136.403 103.774 136.154 103.747 135.677 103.433C134.809 102.863 134.585 103.135 134.753 104.554C134.899 105.784 134.894 105.794 134.119 105.949C133.689 106.035 133.338 106.243 133.338 106.411C133.338 106.703 134.016 107.673 135.507 109.515C136.174 110.338 136.178 110.363 135.639 110.223C134.867 110.023 134.917 110.399 135.95 112.559C136.893 114.532 137.102 115.562 136.449 115.019C136.143 114.765 135.989 114.815 135.586 115.299C135.316 115.624 135.092 116.078 135.087 116.309C135.083 116.54 134.855 116.8 134.582 116.887C134.242 116.995 134.084 117.264 134.084 117.735C134.084 118.658 133.929 118.763 133.032 118.45C132.478 118.256 132.145 118.262 131.812 118.47C131.166 118.874 131.179 118.882 130.358 117.572C129.95 116.921 129.601 116.557 129.583 116.762C129.565 116.968 129.524 117.248 129.492 117.385C129.46 117.523 129.417 117.831 129.396 118.071C129.267 119.56 127.353 117.148 126.839 114.85C126.673 114.107 126.45 113.445 126.344 113.379C126.237 113.312 125.899 113.598 125.593 114.013C124.594 115.367 124.341 115.101 123.892 112.226C123.557 110.076 123.434 109.783 122.867 109.783C122.51 109.783 122.36 110.031 122.231 110.834C122.053 111.951 121.873 111.779 121.52 110.157C121.363 109.432 121.347 109.425 120.991 109.907C120.665 110.349 120.598 110.36 120.399 110.009C120.276 109.791 119.943 109.343 119.661 109.012L119.146 108.411L118.75 108.972C118.173 109.787 118 109.678 117.667 108.287C117.503 107.601 117.282 107.04 117.175 107.04C117.069 107.04 116.843 107.375 116.674 107.785C116.505 108.195 116.283 108.478 116.181 108.415C116.079 108.352 115.809 107.652 115.581 106.86C115.159 105.393 114.48 103.972 114.416 104.423C114.397 104.56 114.394 104.953 114.411 105.296C114.462 106.385 114.082 106.706 113.155 106.356C112.714 106.189 112.312 106.093 112.262 106.143C112.1 106.304 113.952 110.832 115.206 113.344C116.417 115.77 116.646 116.513 116.18 116.513C116.046 116.513 115.866 116.793 115.78 117.136C115.679 117.539 115.449 117.759 115.13 117.759C114.046 117.759 109.608 116.712 107.13 115.872C105.685 115.383 104.204 115.018 103.838 115.062C103.239 115.134 103.325 115.227 104.713 116.006C106.404 116.956 106.319 117.21 104.298 117.243C103.574 117.255 103.24 117.369 103.24 117.605C103.24 117.953 103.802 118.229 105.604 118.768C107.013 119.19 107.246 119.504 106.151 119.504C105.645 119.504 105.23 119.593 105.23 119.702C105.23 119.811 105.818 120.196 106.536 120.559L107.842 121.219L106.644 121.234C105.599 121.247 105.464 121.307 105.59 121.706C105.698 122.046 105.34 122.497 104.179 123.48C102.367 125.016 102.249 125.17 101.114 127.471C100.209 129.306 100.053 130.112 100.567 130.288C100.794 130.366 100.625 131.161 99.9402 133.238C99.4248 134.802 99.0052 136.281 99.0074 136.525C99.0142 137.185 99.6716 137.317 100.444 136.813C101.36 136.215 101.637 135.842 102.465 134.087C102.852 133.264 103.578 131.991 104.076 131.258C105.128 129.708 105.192 129.291 104.422 128.994C103.76 128.738 103.874 128.682 106.225 128.099C107.115 127.878 108.57 127.473 109.459 127.199C112.266 126.333 115.441 125.964 117.87 126.223C120.568 126.51 121.363 126.784 123.388 128.122C125.204 129.322 128.544 133.049 129.678 135.142C130.067 135.859 130.471 136.499 130.576 136.564C130.681 136.629 130.958 136.074 131.192 135.33C131.426 134.587 131.724 133.913 131.855 133.831C131.987 133.75 132.094 132.905 132.094 131.953C132.094 130.427 132.039 130.223 131.627 130.223C131.011 130.223 130.765 129.852 130.388 128.354C130.216 127.668 129.688 126.413 129.216 125.565C128.475 124.236 128.265 124.029 127.693 124.069C126.961 124.121 127.017 124.202 125.386 120.742C124.457 118.771 124.168 117.759 124.532 117.759C125.017 117.759 126.347 118.615 126.6 119.09C126.765 119.398 127.392 119.948 127.994 120.312C128.828 120.817 129.369 121.458 130.266 123.006C131.251 124.706 131.49 124.973 131.728 124.647C131.977 124.307 132.079 124.347 132.534 124.963C133.362 126.086 133.84 127.426 134.361 130.085C134.628 131.45 134.885 132.605 134.934 132.653C135.037 132.757 136.336 130.634 136.745 129.695C136.901 129.335 137.101 128.494 137.19 127.825C137.278 127.156 137.464 126.02 137.601 125.3C137.888 123.796 138.138 123.707 140.154 124.395C141.603 124.89 141.987 124.653 141.59 123.512C141.294 122.661 141.369 122.622 142.517 123.023C142.955 123.176 143.377 123.237 143.455 123.158C143.534 123.08 143.193 122.449 142.697 121.758C142.201 121.066 141.795 120.27 141.795 119.989C141.795 119.708 141.515 119.065 141.173 118.561C140.831 118.056 140.551 117.382 140.551 117.062C140.551 116.742 140.42 116.235 140.259 115.936C140.098 115.636 139.869 114.943 139.75 114.394C139.292 112.284 139.106 111.623 138.728 110.755C138.471 110.164 138.421 109.774 138.583 109.611C138.745 109.449 138.74 109.131 138.568 108.679C138.343 108.086 138.374 107.975 138.796 107.864C139.064 107.794 139.38 107.447 139.498 107.092C139.706 106.466 139.738 106.49 140.598 107.928C141.086 108.743 141.615 109.815 141.773 110.311C141.932 110.808 142.505 111.951 143.048 112.853C144.15 114.684 144.304 115.645 143.536 115.89C142.608 116.185 142.999 117.222 144.725 119.049C145.382 119.745 145.555 120.105 145.443 120.552C145.32 121.042 145.57 121.388 146.944 122.628C149.458 124.896 150.757 125.767 151.356 125.583C152.128 125.345 152.127 125.342 151.07 124.138C148.99 121.77 147.772 118.71 147.768 115.844C147.761 111.334 149.394 107.392 152.609 104.162C154.759 102.001 156.165 101.098 159.426 99.7808L161.509 98.9393L161.881 99.5001C162.085 99.8085 162.359 100.061 162.488 100.061C162.82 100.061 165.709 97.9576 166.231 97.3357C166.469 97.0523 166.833 96.8202 167.04 96.8202C167.246 96.8202 167.415 96.7232 167.415 96.6048C167.415 96.3413 165.576 96.0724 163.774 96.0724C162.891 96.0724 162.462 95.9744 162.503 95.7829C162.537 95.6237 162.131 95.3225 161.6 95.1136C160.727 94.7699 160.445 94.7739 158.637 95.1548C157.538 95.3864 156.585 95.5222 156.519 95.4564C156.454 95.3908 156.668 95.1194 156.995 94.8536C157.96 94.0699 157.385 94.0011 155.725 94.7013C154.874 95.06 154.114 95.2899 154.037 95.2119C153.959 95.1338 154.195 94.7567 154.561 94.3735C155.366 93.532 155.378 93.428 154.694 93.2488C154.378 93.1661 153.667 93.3595 152.953 93.7224C152.288 94.0597 151.745 94.2322 151.745 94.1056C151.745 93.9789 152.066 93.1576 152.459 92.2804C153.352 90.2849 153.576 89.5875 153.316 89.6052C153.204 89.6126 152.553 90.0551 151.869 90.5883ZM58.5276 92.58C56.2056 93.0766 55.1751 94.1228 54.8905 96.2735C54.5975 98.4868 55.4444 102.848 57.0083 107.179C58.0483 110.059 61.7793 117.546 63.5857 120.377C64.3732 121.611 65.4764 123.405 66.0375 124.365C66.5987 125.325 67.475 126.757 67.9851 127.547C70.2621 131.074 74.7874 139.445 76.7925 143.838C78.2352 146.998 82.9789 151.042 85.9755 151.666C88.4457 152.179 88.8221 151.538 86.5749 150.643C85.7541 150.316 85.0825 149.978 85.0825 149.89C85.0825 149.803 85.7628 149.716 86.5943 149.697C89.3452 149.635 89.8461 148.816 87.7286 147.845C85.0039 146.595 79.8562 142.729 80.5898 142.484C80.7455 142.432 81.6094 142.518 82.5093 142.675C83.4095 142.832 84.2 142.906 84.2666 142.84C84.3331 142.773 83.6202 142.331 82.6827 141.856C81.7454 141.381 80.5306 140.629 79.9833 140.184L78.9884 139.376L79.8172 139.534L80.6457 139.691L80.0037 138.927C79.6505 138.506 79.3615 138.083 79.3615 137.988C79.3615 137.892 79.9366 137.219 80.6395 136.492C81.7131 135.382 81.8621 135.119 81.5723 134.849C81.3823 134.672 79.9644 134.047 78.4213 133.459C74.8712 132.108 74.032 131.379 71.3188 127.285C66.2527 119.642 59.4952 106.148 59.0275 102.74C58.9119 101.897 58.9547 101.806 59.4636 101.806C60.1207 101.806 66.6758 108.217 66.6758 108.859C66.6758 109.074 66.4519 109.322 66.1783 109.409C65.9047 109.496 65.6808 109.643 65.6811 109.737C65.6813 109.974 67.9526 111.248 70.0338 112.179C70.9914 112.607 71.7749 113.113 71.7749 113.302C71.7749 113.5 71.3332 113.753 70.7367 113.897C70.1656 114.035 69.6313 114.216 69.5492 114.298C69.2948 114.553 69.9863 114.968 71.8739 115.692C74.1927 116.581 74.221 116.778 72.148 117.596L71.2775 117.939L73.0783 118.496C74.0688 118.802 75.3528 119.371 75.9314 119.761C76.7584 120.318 77.3843 120.504 78.8566 120.634C79.8868 120.725 81.7347 121.131 82.9632 121.537C85.3673 122.332 90.306 124.678 90.306 125.026C90.306 125.142 89.53 125.238 88.5815 125.238C86.8344 125.238 80.3681 126.312 79.6356 126.725C79.1284 127.01 79.168 127.023 82.7195 127.691C85.5994 128.233 89.176 129.303 89.7792 129.803C90.0695 130.043 89.9317 130.13 89.0395 130.267C88.4365 130.36 87.3833 130.445 86.6993 130.457C84.0313 130.504 84.0768 130.748 86.9209 131.648C88.6069 132.181 89.5561 132.603 89.4936 132.79C89.377 133.141 87.9497 133.428 86.2018 133.453C84.7034 133.474 83.8388 133.683 83.8388 134.022C83.8388 134.16 84.3477 134.722 84.9698 135.271C85.5919 135.82 86.3847 136.83 86.7311 137.515L87.3612 138.761L86.5327 138.606C86.0772 138.521 85.2688 138.378 84.7365 138.288L83.7687 138.125L84.9422 139.209C85.5877 139.805 86.2737 140.599 86.467 140.974C86.66 141.348 87.0625 141.69 87.3612 141.734C88.3679 141.883 88.0923 142.358 86.6142 143.023C85.8058 143.387 85.0188 143.684 84.8649 143.684C84.7109 143.684 84.585 143.781 84.585 143.9C84.585 144.214 87.1699 144.884 89.1384 145.082C91.0269 145.271 91.0246 145.424 89.1245 146.041C87.5995 146.537 87.3453 147.064 88.7514 146.815C90.4264 146.517 92.2497 145.46 93.1708 144.251C94.2187 142.875 94.256 142.577 93.3531 142.79C92.977 142.879 92.1654 143.012 91.5497 143.085L90.4304 143.218L91.0522 142.689C91.3943 142.398 92.1499 141.769 92.7312 141.29C93.3128 140.811 93.7884 140.323 93.7884 140.205C93.7884 140.088 93.3125 140.049 92.7312 140.117L91.6741 140.242L93.4153 138.625C94.3729 137.735 95.0838 136.932 94.995 136.839C94.9062 136.747 94.3632 136.798 93.7884 136.954C93.2135 137.109 92.6895 137.182 92.6238 137.116C92.3763 136.868 93.0494 136.025 94.5137 134.749C95.346 134.023 96.027 133.324 96.027 133.195C96.027 133.057 95.4425 133.029 94.5968 133.129L93.1665 133.296L94.0993 132.154C94.6122 131.526 95.0321 130.875 95.0321 130.708C95.0321 130.54 95.4798 129.917 96.027 129.322C96.5743 128.727 97.022 128.125 97.022 127.985C97.022 127.845 96.6302 127.73 96.1514 127.73C94.9386 127.73 95.0652 127.35 96.5245 126.609C97.2086 126.261 97.7682 125.926 97.7682 125.863C97.7682 125.8 97.416 125.566 96.9857 125.344C96.0823 124.875 96.3051 124.613 97.8239 124.356C99.0659 124.145 99.2393 123.777 98.4082 123.113L97.7242 122.566L98.3878 122.043L99.0515 121.52L98.5239 120.953C98.0289 120.42 98.0229 120.365 98.4274 120.069C98.6644 119.896 99.0047 119.754 99.1838 119.754C99.6193 119.754 99.5962 119.388 99.1363 119.006C98.5488 118.517 98.6975 118.006 99.5094 117.722C99.9198 117.579 100.256 117.359 100.256 117.233C100.256 117.108 99.6474 116.615 98.904 116.139C97.3038 115.113 97.1571 114.924 97.6466 114.516C98.2525 114.012 98.0739 113.772 97.0842 113.758C96.0144 113.743 93.3026 112.772 93.2912 112.4C93.2869 112.263 94.0406 112.095 94.9662 112.026L96.6489 111.901L95.343 111.176C94.1304 110.503 93.6951 110.032 94.2859 110.032C95.0318 110.032 94.2023 109.478 91.301 108.038C89.5225 107.155 88.0674 106.333 88.0674 106.211C88.0674 106.089 88.2472 106.059 88.4671 106.144C89.8881 106.69 97.4128 108.553 97.9428 108.489C98.2985 108.446 98.8214 108.099 99.1047 107.717C99.8713 106.684 99.4604 106.278 97.129 105.766C94.4147 105.17 84.7348 101.838 80.9017 100.179C79.1652 99.4281 76.2557 97.9065 74.4357 96.798C70.7166 94.5328 68.7122 93.5607 66.5425 92.9696C64.7839 92.4903 60.0277 92.2592 58.5276 92.58ZM52.0977 97.0695C52.0977 98.9203 52.1367 99.6774 52.1847 98.7521C52.2325 97.8265 52.2325 96.3124 52.1847 95.3868C52.1367 94.4613 52.0977 95.2186 52.0977 97.0695ZM115.327 94.8883C115.128 95.1969 114.89 95.753 114.799 96.1245C114.708 96.4959 114.477 96.9304 114.285 97.0896C114.093 97.2492 113.936 97.7587 113.936 98.2216C113.936 99.1696 113.794 99.2354 112.981 98.6643C112.668 98.4447 112.373 98.3044 112.326 98.3527C112.176 98.506 112.754 101.169 113.008 101.494C113.424 102.027 113.958 101.843 114.99 100.809C115.537 100.26 116.056 99.8135 116.142 99.816C116.228 99.8185 116.664 100.379 117.11 101.062C117.98 102.395 118.383 102.598 118.59 101.806C118.785 101.057 118.722 101.031 121.344 102.953C121.656 103.182 121.973 103.307 122.048 103.232C122.193 103.086 121.274 99.6033 121.025 99.3538C120.945 99.2736 120.62 99.533 120.304 99.9309L119.728 100.654L119.227 99.298C118.951 98.5521 118.646 97.6827 118.548 97.3661C118.399 96.8837 118.255 96.8157 117.658 96.9468C116.971 97.0981 116.93 97.0528 116.542 95.7156C116.101 94.1956 115.874 94.0408 115.327 94.8883ZM62.6171 97.4147C62.5196 97.669 62.8895 97.8385 64.0207 98.0581C66.0417 98.4504 69.2512 99.8895 72.8433 102.014C78.1424 105.148 84.879 108.287 86.3051 108.287C86.7528 108.287 84.4452 106.771 79.4384 103.775C75.6411 101.503 69.3915 98.3969 66.9947 97.5902C65.1916 96.9832 62.8186 96.888 62.6171 97.4147ZM175.686 101.851C174.831 102.139 174.131 102.442 174.131 102.526C174.132 102.61 174.887 102.683 175.81 102.69C176.983 102.698 178.252 102.942 180.015 103.5C182.434 104.264 184.071 104.478 184.943 104.143C185.569 103.902 181.336 102.043 179.258 101.646C177.146 101.242 177.57 101.218 175.686 101.851ZM160.851 104.005C160.776 104.126 161.504 104.536 162.47 104.916C164.542 105.731 165.782 106.836 166.947 108.91C167.66 110.177 167.801 110.315 167.872 109.813C168.104 108.169 166.072 105.511 163.852 104.554C162.551 103.993 161.03 103.715 160.851 104.005ZM173.509 105.379C172.825 105.705 172.063 106.201 171.816 106.479C171.569 106.758 170.99 108.428 170.529 110.191C169.069 115.771 168.471 117.13 166.559 119.217C165.503 120.369 162.55 122.019 160.251 122.742C159.525 122.97 158.954 123.261 158.982 123.387C159.064 123.76 163.946 125.511 165.32 125.66C166.612 125.8 169.405 125.186 169.405 124.761C169.405 124.515 168.541 124.249 167.726 124.244C166.844 124.238 167.067 123.89 168.348 123.268C170.773 122.093 174.047 119.988 175.251 118.83L176.494 117.635L175.499 117.51L174.504 117.385L175.525 116.264C177.034 114.606 178.314 112.847 178.998 111.496C179.588 110.328 179.591 110.292 179.122 110.041C178.858 109.899 178.291 109.783 177.862 109.783C176.935 109.783 176.121 109.391 176.121 108.946C176.121 108.561 178.244 106.293 178.604 106.293C179.28 106.293 178.727 105.792 177.676 105.452C175.5 104.75 174.851 104.738 173.509 105.379ZM156.128 105.704C153.667 106.461 151.727 108.127 150.588 110.461C149.72 112.237 149.522 114.476 150.108 115.881C150.607 117.077 150.834 116.879 151.371 114.783C151.928 112.612 152.509 111.545 153.744 110.427C154.935 109.349 156.122 108.785 157.206 108.785C157.809 108.785 158.078 108.978 158.572 109.762C158.91 110.298 159.307 110.812 159.453 110.902C159.599 110.993 160.212 110.778 160.813 110.425C161.415 110.072 161.971 109.783 162.049 109.783C162.42 109.783 164.272 111.724 164.697 112.56C165.216 113.578 165.323 115.38 164.945 116.702C164.678 117.634 164.859 117.707 165.733 117.018C167.781 115.404 167.551 111.487 165.25 108.794C163.531 106.781 160.49 105.278 158.212 105.316C157.733 105.324 156.796 105.498 156.128 105.704ZM114.726 129.202C111.111 130.453 108.881 135.423 110.066 139.584C111.021 142.937 112.736 144.707 115.18 144.864C116.516 144.95 117.693 144.555 116.969 144.263C116.134 143.925 114.482 142.432 113.767 141.367C112.859 140.015 112.321 137.821 112.549 136.396C112.928 134.021 114.962 131.5 116.926 130.97C118.352 130.585 118.74 130.718 118.932 131.656C119.163 132.789 119.593 133.214 120.508 133.214C121.47 133.214 121.896 132.83 121.896 131.962C121.896 131.157 121.217 130.511 119.311 129.503C117.62 128.608 116.63 128.543 114.726 129.202ZM149.382 132.836C149.245 132.883 148.841 132.986 148.484 133.064C148.128 133.142 147.038 133.923 146.062 134.8C144.742 135.986 143.985 136.47 143.104 136.689C140.354 137.373 138.313 138.811 138.313 140.065C138.313 140.363 138.498 140.261 138.964 139.706C139.859 138.64 140.809 138.2 142.218 138.198C144.257 138.196 145.074 137.827 146.369 136.324C148.028 134.399 148.526 134.129 150.723 133.969L152.615 133.831L151.869 133.428C151.074 132.999 149.793 132.694 149.382 132.836ZM107.642 136.543C107.547 136.791 107.469 137.662 107.469 138.478C107.469 140.556 108.261 142.294 109.515 142.966C109.996 143.224 110.032 143.372 108.963 140.693C108.662 139.939 108.28 138.595 108.115 137.707C107.911 136.611 107.759 136.237 107.642 136.543ZM175.733 137.319C175.468 137.521 174.839 137.689 174.337 137.693C173.724 137.699 173.17 137.915 172.653 138.35C172.101 138.816 171.715 138.957 171.286 138.849C170.484 138.647 169.908 138.9 169.656 139.565C169.49 140.003 169.297 140.092 168.705 140.005C168.115 139.918 167.928 140.004 167.796 140.419C167.45 141.512 168.46 142.615 169.231 141.985C169.395 141.851 170.013 141.598 170.604 141.422C171.194 141.246 171.882 140.842 172.132 140.523C172.452 140.116 172.842 139.945 173.452 139.945C173.929 139.945 174.458 139.777 174.627 139.573C174.797 139.368 175.398 139.076 175.963 138.924C177.363 138.547 177.68 138.053 176.974 137.345C176.491 136.861 176.342 136.858 175.733 137.319ZM150.439 139.34C149.661 139.762 149.606 140.102 150.113 141.318C150.493 142.231 151.751 143.933 152.044 143.933C152.14 143.933 151.946 143.344 151.611 142.625C150.909 141.112 150.826 140.064 151.392 139.847C151.608 139.764 152.28 139.696 152.884 139.696C153.977 139.696 154.341 139.388 153.59 139.099C152.882 138.827 151.137 138.96 150.439 139.34ZM177.116 140.298C177.116 141.026 177.436 141.44 177.999 141.44C178.737 141.44 178.954 141.09 178.611 140.449C178.3 139.866 177.116 139.747 177.116 140.298ZM103.207 142.5C101.718 143.884 100.007 146.805 100.007 147.962C100.007 148.022 100.735 148.023 101.625 147.966C103.36 147.856 103.867 148.071 104.25 149.083C104.569 149.922 106.488 150.375 110.543 150.567C114.875 150.772 116.859 150.47 119.326 149.231C120.844 148.469 121.177 148.382 121.511 148.66C121.801 148.901 121.862 149.218 121.742 149.858L121.58 150.729L123.115 149.909C125.689 148.534 126.778 146.819 126.377 144.773C126.13 143.513 125.729 142.53 125.37 142.308C125.209 142.208 124.194 142.731 123.054 143.501C120.609 145.155 119.467 145.744 117.684 146.274C116.007 146.772 112.201 146.803 110.636 146.331C109.413 145.962 105.964 143.652 105.046 142.586C104.361 141.793 103.987 141.775 103.207 142.5ZM174.22 143.064C174.052 143.503 174.539 144.183 175.023 144.183C175.207 144.183 175.478 143.957 175.625 143.682C175.853 143.254 175.798 143.145 175.244 142.934C174.409 142.616 174.391 142.618 174.22 143.064ZM142.143 143.899C140.805 144.884 139.97 145.839 140.167 146.158C140.539 146.762 141.59 146.405 142.811 145.261C144.242 143.919 144.403 143.973 145.146 146.052C145.745 147.727 146.024 147.978 146.024 146.842C146.024 145.816 145.48 144.322 144.856 143.631C144.272 142.983 143.251 143.084 142.143 143.899ZM191.566 146.551C190.419 148.458 188.422 150.263 186.863 150.8C186.103 151.062 185.835 151.053 185.242 150.746C184.852 150.543 184.488 150.421 184.435 150.474C184.382 150.528 183.958 151.597 183.493 152.851C181.949 157.014 180.726 158.561 176.036 162.292C174.373 163.615 171.501 166.236 169.654 168.117C166.071 171.767 165.222 172.376 162.005 173.604C160.876 174.036 159.953 174.479 159.953 174.589C159.953 175.457 162.904 174.763 166.047 173.158C167.963 172.178 168.684 171.61 171.049 169.212C173.689 166.535 173.888 166.388 175.526 165.909C179.668 164.7 182.549 164.078 182.955 164.305C183.272 164.483 183.032 164.61 181.921 164.854C180.298 165.21 174.629 167.582 174.629 167.905C174.629 168.019 174.955 168.113 175.355 168.113C176.203 168.113 176.867 168.333 176.867 168.613C176.867 168.722 176 169.004 174.94 169.24C173.88 169.476 172.811 169.81 172.566 169.982C172.155 170.269 172.191 170.336 173.001 170.815C174.126 171.481 174.114 171.757 172.95 171.958C170.315 172.412 170.126 172.565 171.395 173.223C172.529 173.811 172.292 174.075 170.773 173.918C169.135 173.749 168.986 174.08 170.412 174.724C171.779 175.342 171.888 175.636 170.679 175.442C169.577 175.266 167.415 175.511 167.415 175.812C167.415 176.028 173.039 177.851 173.674 177.841C173.901 177.838 174.758 178.044 175.578 178.3C177.257 178.824 177.823 178.693 177.39 177.883C177.239 177.6 177.116 177.292 177.116 177.199C177.116 176.999 179.972 177.206 180.785 177.465C181.454 177.678 181.535 177.187 181.003 176.14C180.815 175.769 180.584 175.214 180.489 174.906C180.332 174.396 180.398 174.345 181.212 174.345C181.704 174.345 182.486 174.504 182.949 174.698C183.412 174.891 183.851 174.99 183.925 174.917C183.998 174.843 183.727 174.127 183.323 173.325C182.919 172.523 182.588 171.751 182.588 171.61C182.588 171.465 183.185 171.354 183.956 171.354C184.709 171.354 185.325 171.275 185.325 171.179C185.325 171.082 184.967 170.633 184.53 170.181C183.639 169.26 183.597 169.284 186.009 169.356C187.928 169.414 187.626 168.87 185.387 168.238C185.079 168.151 184.827 167.99 184.827 167.881C184.827 167.633 186.709 167.365 188.454 167.365C189.179 167.365 189.836 167.261 189.914 167.135C189.993 167.008 189.553 166.491 188.937 165.985C188.321 165.48 187.878 164.966 187.953 164.844C188.029 164.723 188.559 164.612 189.132 164.598C189.706 164.584 190.455 164.494 190.797 164.398C191.409 164.226 191.402 164.211 190.324 163.426C189.722 162.988 189.085 162.629 188.909 162.629C188.732 162.629 188.525 162.527 188.448 162.404C188.37 162.276 189.041 162.195 189.988 162.217L191.667 162.255L191.586 161.423C191.537 160.913 191.659 160.421 191.901 160.153C192.247 159.77 192.289 158.82 192.231 152.634L192.165 145.554L191.566 146.551ZM149.004 147.326C149.687 148.475 150.75 149.647 150.75 149.252C150.75 149.099 150.38 148.435 149.928 147.778C148.909 146.296 148.18 145.939 149.004 147.326ZM91.5522 150.103C89.6797 152.032 88.8753 153.398 89.4016 153.754C89.6705 153.936 89.6217 154.327 89.1409 155.845C88.8156 156.871 88.5808 157.729 88.6193 157.751C88.6579 157.773 88.9904 157.921 89.3583 158.079C89.914 158.318 90.0406 158.548 90.1046 159.438C90.1812 160.505 90.1861 160.51 91.1005 160.457C92.0179 160.404 92.0198 160.406 92.1753 161.578C92.3736 163.071 93.0529 165.371 93.2954 165.371C93.3974 165.371 93.6115 164.838 93.7715 164.187C93.9314 163.536 94.2772 162.418 94.5398 161.704C94.8025 160.99 94.9249 160.348 94.8115 160.278C94.698 160.208 94.2687 160.247 93.857 160.366C92.5653 160.737 92.3517 160.357 93.0001 158.841C93.7185 157.162 93.7461 156.998 93.2909 157.12C93.0857 157.174 92.6099 157.271 92.2338 157.335L91.5497 157.451V155.689C91.5497 154.156 91.6952 153.585 92.6691 151.3C93.2847 149.856 93.7884 148.617 93.7884 148.547C93.7884 148.077 92.9576 148.655 91.5522 150.103ZM104.38 154.868C103.337 155.095 103.335 155.506 104.371 156.298C105.179 156.915 105.233 157.025 104.868 157.293C104.495 157.566 104.516 157.653 105.093 158.23C105.893 159.032 105.897 159.481 105.106 159.841C104.249 160.233 104.324 160.513 105.454 161.149C106.546 161.764 107.096 162.591 106.875 163.285C106.793 163.541 106.222 164.069 105.605 164.459C104.022 165.46 104.112 165.674 106.256 165.99C107.181 166.127 107.637 166.015 109.287 165.248C111.16 164.377 111.277 164.271 112.554 162.289C114.015 160.019 114.317 159.764 116.799 158.711C118.866 157.833 119.261 157.253 117.637 157.48C117.038 157.563 115.289 157.706 113.75 157.798C111.195 157.949 110.951 157.926 110.951 157.531C110.951 157.156 110.788 157.121 109.735 157.266C108.189 157.479 107.968 157.144 109.088 156.287C110.685 155.067 110.122 154.641 106.972 154.685C105.946 154.699 104.779 154.782 104.38 154.868ZM134.93 156.837C134.779 156.938 134.523 157.272 134.362 157.581C134.155 157.973 133.841 158.142 133.317 158.142C132.697 158.142 132.504 158.291 132.209 158.999C131.909 159.718 131.681 159.89 130.791 160.065C129.876 160.245 129.72 160.369 129.651 160.972C129.595 161.453 129.311 161.823 128.74 162.161C127.717 162.766 127.547 163.166 128.023 163.847C128.511 164.545 129.007 164.512 129.505 163.751C129.777 163.335 130.141 163.127 130.6 163.127C131.375 163.127 131.704 162.808 131.937 161.833C132.074 161.255 132.241 161.151 133.132 161.085C134.068 161.016 134.195 160.925 134.458 160.136C134.666 159.509 134.917 159.239 135.349 159.177C136.179 159.058 136.572 158.682 136.572 158.005C136.572 157.037 135.631 156.368 134.93 156.837ZM99.6833 163.049C98.6266 164.728 98.017 166.082 98.017 166.751C98.017 167.19 98.4112 167.816 99.2256 168.672L100.434 169.942L101.402 169.36C103.188 168.286 103.718 167.614 102.779 167.614C102.379 167.614 102.299 167.349 102.182 165.644C102.026 163.371 101.603 162.288 100.826 162.177C100.423 162.119 100.126 162.346 99.6833 163.049ZM126.802 166.9C126.157 167.262 126.265 168.076 126.981 168.256C127.734 168.446 128.114 168.228 128.114 167.608C128.114 166.986 127.367 166.583 126.802 166.9ZM103.075 170.01C102.14 170.504 101.331 170.951 101.277 171.001C101.108 171.16 102.006 173.294 102.369 173.596C102.858 174.003 107.22 171.467 107.22 170.776C107.22 170.366 107.098 170.324 106.332 170.468C105.844 170.56 105.276 170.699 105.071 170.778C104.764 170.896 104.728 170.761 104.867 170.016C104.961 169.518 104.978 169.11 104.906 169.11C104.833 169.11 104.009 169.515 103.075 170.01ZM105.63 174.001L104.67 174.655L106.699 175.531C107.815 176.012 108.796 176.339 108.879 176.256C109.139 175.995 107.186 173.348 106.734 173.348C106.655 173.348 106.158 173.642 105.63 174.001ZM114.77 177.648C112.894 179.041 112.113 179.873 112.469 180.102C112.895 180.376 114.42 180.823 114.934 180.824C115.299 180.826 118.165 177.687 118.165 177.286C118.165 177.177 117.571 177.087 116.845 177.087C115.866 177.087 115.33 177.232 114.77 177.648ZM111.035 177.509C110.441 177.625 110.146 178.139 110.357 178.688C110.635 179.415 111.269 179.332 112.474 178.411C113.142 177.9 113.688 177.45 113.688 177.41C113.688 177.307 111.686 177.382 111.035 177.509ZM149.63 178.084C148.946 178.337 148.151 178.553 147.863 178.563C147.576 178.574 146.045 179.199 144.462 179.954C141.368 181.427 141.067 181.53 141.551 180.945C142.068 180.32 141.74 180.325 140.173 180.965C138.067 181.824 137.336 181.77 138.195 180.819C138.849 180.095 138.036 179.71 135.754 179.665C134.504 179.64 133.699 179.513 133.582 179.322C133.449 179.107 132.865 179.37 131.563 180.231C129.8 181.396 129.759 181.445 130.477 181.532C130.888 181.582 131.82 181.489 132.549 181.327C133.278 181.164 133.919 181.076 133.973 181.13C134.028 181.185 133.851 181.813 133.581 182.526C133.31 183.239 133.089 183.921 133.089 184.041C133.089 184.162 133.733 183.995 134.519 183.671C136.184 182.985 137.069 182.906 137.069 183.443C137.069 183.958 137.472 183.918 139.845 183.166C141.218 182.732 141.932 182.608 141.993 182.793C142.141 183.237 142.42 183.144 145.346 181.675C148.187 180.249 151.303 178.348 151.605 177.859C151.85 177.462 151.073 177.551 149.63 178.084Z" fill="black"/>
</g>
<defs>
<clipPath id="clip0_186_12">
<rect width="148" height="172" fill="white" transform="translate(52 35)"/>
</clipPath>
</defs>
</svg>
