<svg aria-hidden="true" style="position: absolute; width: 0; height: 0; overflow: hidden;" version="1.1" xmlns="http://www.w3.org/2000/svg" xmlns:xlink="http://www.w3.org/1999/xlink">
<defs>
<symbol id="icon-catSearch" viewBox="0 0 35 32">
<path d="M9.747 0.090c0.356-0.044 1.103-0.063 1.661-0.043 4.554 0.168 8.565 3.131 10.024 7.407 0.843 2.469 0.762 5.289-0.22 7.739l-0.264 0.66 0.707 0.665-0.391 0.474c-0.215 0.261-0.391 0.5-0.391 0.532s0.155 0.191 0.345 0.354c0.19 0.162 0.345 0.319 0.345 0.348 0 0.041-1.174 1.474-1.561 1.906-0.040 0.045-0.244-0.064-0.473-0.252l-0.403-0.331-0.9 1.015-0.725-0.621-0.448 0.302c-1.072 0.723-2.455 1.289-3.878 1.587-1.115 0.234-2.931 0.256-4.075 0.051-3.386-0.608-6.381-2.842-7.927-5.912-1.528-3.034-1.538-6.776-0.028-9.8 1.665-3.334 4.903-5.622 8.603-6.080zM10.111 1.733c-2.034 0.192-3.96 1.062-5.445 2.459-0.93 0.875-1.474 1.61-2.035 2.752-0.542 1.103-0.787 1.964-0.924 3.255-0.169 1.584 0.145 3.326 0.879 4.87 1.285 2.705 3.869 4.664 6.854 5.196 0.744 0.133 2.51 0.112 3.305-0.039 3.542-0.672 6.388-3.327 7.331-6.838 0.201-0.749 0.225-0.996 0.227-2.347 0.002-1.372-0.019-1.588-0.23-2.372-0.5-1.857-1.69-3.696-3.169-4.899-0.874-0.711-2.45-1.507-3.533-1.786-0.403-0.104-0.819-0.216-0.819-0.216l-0.302-0.043c-0.389-0.077-1.492-0.053-2.137 0.008zM21.723 19.799c0.728-0.854 1.195-1.335 1.27-1.307 0.465 0.179 7.549 5.162 7.529 5.297-0.044 0.304 0.311 0.651 0.595 0.58 0.15-0.038 0.366 0.078 0.907 0.482 1.735 1.3 3.254 2.526 3.254 2.627 0 0.207-0.583 1.23-1.087 1.906-0.277 0.371-0.873 1.048-1.325 1.503-0.802 0.807-1.275 1.151-1.511 1.097-0.123-0.028-2.51-2.186-3.771-3.41-0.647-0.628-0.738-0.75-0.654-0.884 0.078-0.126 0.057-0.206-0.112-0.419-0.295-0.373-0.409-0.339-0.123 0.036 0.173 0.227 0.21 0.335 0.14 0.405s-0.612-0.417-2.043-1.84c-3.037-3.020-4.374-4.452-4.291-4.597 0.039-0.068 0.589-0.732 1.223-1.476zM24.302 19.996c0.083 0.087 0.166 0.146 0.185 0.131 0.051-0.040-0.173-0.29-0.26-0.29-0.042 0-0.008 0.071 0.075 0.158zM24.108 20.183c0.086 0.095 0.17 0.172 0.187 0.172s-0.018-0.078-0.077-0.172-0.143-0.172-0.187-0.172c-0.043 0-0.009 0.078 0.077 0.172zM23.72 20.217c0 0.019 0.058 0.056 0.129 0.084s0.129 0.012 0.129-0.034c0-0.046-0.058-0.084-0.129-0.084s-0.129 0.015-0.129 0.034zM23.72 20.437c0 0.144 0.184 0.2 0.288 0.088 0.077-0.083 0.075-0.094-0.008-0.048-0.059 0.033-0.108 0.020-0.108-0.030s-0.039-0.091-0.086-0.091c-0.047 0-0.086 0.037-0.086 0.081zM23.461 20.733c0.119 0.069 0.232 0.11 0.252 0.090 0.054-0.054-0.011-0.094-0.251-0.158l-0.216-0.057 0.215 0.126zM23.242 20.949c0.045 0.14 0.035 0.186-0.031 0.145-0.053-0.032-0.095-0.018-0.095 0.032 0 0.128 0.133 0.114 0.249-0.027 0.075-0.090 0.064-0.146-0.045-0.236-0.128-0.106-0.136-0.097-0.078 0.086zM22.814 21.218c0.086 0.095 0.17 0.172 0.187 0.172s-0.018-0.078-0.077-0.172-0.143-0.172-0.187-0.172c-0.043 0-0.009 0.078 0.077 0.172zM22.426 21.251c0 0.018 0.078 0.053 0.173 0.078s0.151 0.010 0.124-0.033c-0.046-0.075-0.297-0.113-0.297-0.045zM22.34 21.423c0 0.018 0.068 0.086 0.151 0.151 0.137 0.107 0.14 0.104 0.033-0.033-0.113-0.144-0.184-0.189-0.184-0.118zM22.297 21.65c0.086 0.095 0.176 0.172 0.199 0.172s-0.027-0.078-0.113-0.172c-0.086-0.095-0.176-0.172-0.199-0.172s0.027 0.078 0.113 0.172zM21.853 21.858c0.062 0.094 0.168 0.185 0.235 0.202 0.068 0.018 0.056-0.011-0.029-0.064-0.206-0.13-0.191-0.29 0.022-0.234 0.095 0.025 0.151 0.011 0.125-0.032s-0.142-0.069-0.257-0.059c-0.189 0.016-0.198 0.034-0.096 0.188zM25.022 25.112c2.553 2.524 6.179 5.853 6.374 5.853 0.17 0 0.849-0.511 1.063-0.8 0.357-0.482 0.353-0.516-0.033-0.319-0.629 0.321-0.819 0.276-1.683-0.393-2.256-1.746-3.569-2.824-3.526-2.895 0.027-0.044-0.016-0.079-0.096-0.079-0.129 0-1.504-1.101-3.316-2.655-0.356-0.305 0.192 0.274 1.217 1.287zM30.706 24.065c0.17 0.239 0.431 0.353 0.431 0.189 0-0.073-0.471-0.447-0.563-0.447-0.029 0 0.030 0.116 0.132 0.259zM29.875 24.28c-0.066 0.173 0.023 0.389 0.16 0.387 0.077-0.001 0.071-0.026-0.019-0.084-0.107-0.068-0.111-0.113-0.021-0.257 0.068-0.109 0.075-0.175 0.019-0.175-0.049 0-0.112 0.058-0.139 0.129zM30.527 24.483c0.059 0.11 0.054 0.19-0.014 0.259-0.074 0.074-0.074 0.099-0.001 0.099 0.054 0 0.123-0.039 0.152-0.087 0.070-0.114-0.032-0.43-0.139-0.43-0.053 0-0.052 0.058 0.002 0.159zM29.212 24.518c0.038 0.059 0.069 0.13 0.070 0.156s0.142 0.172 0.315 0.323c0.316 0.277 0.506 0.348 0.506 0.189 0-0.047-0.029-0.082-0.065-0.076-0.175 0.028-0.273-0.029-0.409-0.237-0.123-0.187-0.128-0.24-0.031-0.308 0.081-0.056 0.058-0.065-0.077-0.026-0.114 0.032-0.194 0.017-0.194-0.038 0-0.051-0.041-0.092-0.091-0.092-0.052 0-0.062 0.046-0.023 0.108zM28.941 25.010c-0.264 0.291-0.023 0.567 0.299 0.342 0.102-0.072 0.090-0.080-0.057-0.038-0.248 0.070-0.359-0.12-0.156-0.269 0.087-0.063 0.138-0.136 0.113-0.16s-0.114 0.032-0.198 0.125zM28.471 25.431c-0.067 0.126-0.031 0.221 0.174 0.453 0.163 0.185 0.225 0.224 0.168 0.104-0.050-0.104-0.133-0.215-0.184-0.247s-0.070-0.15-0.041-0.264c0.062-0.245 0.002-0.269-0.117-0.047zM29.469 25.405c0.028 0.073-0.022 0.214-0.111 0.314-0.16 0.18-0.159 0.181 0.033 0.080 0.194-0.102 0.283-0.527 0.11-0.527-0.046 0-0.061 0.060-0.033 0.133zM27.877 25.893c-0.163 0.163-0.122 0.366 0.116 0.59 0.229 0.215 0.454 0.176 0.544-0.095 0.029-0.086-0.003-0.079-0.105 0.024-0.080 0.080-0.205 0.123-0.278 0.095-0.109-0.042-0.093-0.091 0.089-0.281 0.171-0.179 0.198-0.253 0.117-0.334-0.132-0.132-0.35-0.132-0.483 0zM27.893 26c-0.026 0.068-0.013 0.186 0.029 0.262 0.069 0.123 0.094 0.12 0.231-0.032 0.085-0.094 0.129-0.212 0.097-0.262-0.082-0.133-0.303-0.113-0.358 0.032zM27.131 26.245c0.029 0.074 0.107 0.156 0.174 0.182s0.123 0.090 0.123 0.142c0 0.175 0.256 0.354 0.453 0.316 0.187-0.036 0.187-0.038 0.010-0.049-0.252-0.016-0.528-0.431-0.364-0.548 0.087-0.062 0.075-0.070-0.045-0.031-0.089 0.029-0.216 0.008-0.282-0.047-0.096-0.080-0.11-0.072-0.069 0.035z"></path>
<path d="M13.592 3.053c0.117-0.042 0.194-0.041 0.287 0.002 0.126 0.058 0.39 0.342 0.549 0.587 0.114 0.177 0.22 0.3 0.492 0.571 0.383 0.382 0.354 0.34 0.813 1.203 0.23 0.432 0.24 0.455 0.448 0.968 0.081 0.201 0.203 0.462 0.271 0.581l0.123 0.215 0.007 0.43c0.004 0.263-0.001 0.422-0.013 0.408-0.019-0.020-0.148-0.375-0.229-0.63-0.020-0.063-0.070-0.164-0.112-0.226-0.105-0.155-0.149-0.248-0.235-0.484-0.134-0.371-0.264-0.67-0.457-1.055-0.34-0.675-0.568-1.021-0.903-1.372-0.137-0.144-0.287-0.318-0.332-0.386-0.116-0.176-0.215-0.279-0.357-0.376-0.134-0.091-0.193-0.101-0.313-0.050-0.102 0.042-0.162 0.099-0.262 0.246-0.129 0.19-0.213 0.375-0.339 0.742-0.249 0.732-0.258 0.78-0.326 1.699-0.024 0.331-0.054 0.663-0.066 0.737-0.021 0.132 0.004 0.306 0.045 0.306 0.045 0 0.095-0.146 0.153-0.45 0.070-0.368 0.086-0.415 0.128-0.373 0.019 0.019 0.025 0.122 0.022 0.365l-0.004 0.339 0.067-0.107c0.037-0.059 0.077-0.117 0.089-0.129 0.040-0.040 0.002 0.154-0.056 0.279-0.030 0.066-0.050 0.135-0.043 0.152 0.012 0.031 0.155 0.079 0.313 0.106 0.093 0.016 0.103 0.045 0.027 0.080-0.058 0.027-0.072 0.061-0.024 0.061 0.016 0 0.070-0.015 0.121-0.032 0.155-0.055 0.169-0.039 0.059 0.066-0.056 0.054-0.102 0.101-0.102 0.105s0.041 0.014 0.091 0.022c0.050 0.008 0.155 0.033 0.233 0.056s0.173 0.041 0.211 0.041c0.087 0 0.079 0.040-0.018 0.090l-0.071 0.036 0.104 0.014c0.16 0.021 0.305 0.053 0.458 0.102l0.139 0.045-0.075 0.026c-0.084 0.029-0.081 0.031 0.123 0.086 0.161 0.044 0.389 0.178 0.346 0.205-0.055 0.034 0.127 0.084 0.357 0.098 0.124 0.008 0.226 0.021 0.226 0.029s-0.014 0.028-0.032 0.042c-0.018 0.015-0.027 0.035-0.020 0.046 0.018 0.030 0.094 0.022 0.242-0.024 0.075-0.024 0.191-0.049 0.257-0.056 0.117-0.012 0.12-0.012 0.073 0.023-0.083 0.061-0.059 0.083 0.076 0.071 0.143-0.013 0.323-0.084 0.387-0.153 0.034-0.037 0.046-0.082 0.052-0.208 0.006-0.124 0.008-0.104 0.012 0.089 0.002 0.137-0.002 0.293-0.009 0.347l-0.013 0.097-0.121 0.024c-0.066 0.013-0.159 0.027-0.207 0.030l-0.086 0.006 0.365 0.177-0.070 0.026c-0.095 0.035-0.088 0.060 0.025 0.090l0.095 0.025-0.002 0.155c-0.002 0.152-0.003 0.155-0.062 0.167-0.033 0.007-0.076 0.037-0.097 0.068-0.035 0.053-0.035 0.057 0.010 0.088 0.032 0.023 0.046 0.055 0.046 0.109 0 0.071 0.004 0.075 0.054 0.063l0.054-0.013v0.484c0 0.266-0.006 0.484-0.013 0.484-0.035 0-0.137-0.078-0.161-0.122-0.021-0.039-0.021-0.056-0.002-0.076 0.038-0.038 0.031-0.081-0.013-0.081-0.063 0-0.090-0.046-0.090-0.153 0-0.064-0.013-0.114-0.034-0.135-0.042-0.042-0.034-0.042-0.201 0.009-0.173 0.053-0.209 0.035-0.161-0.080 0.018-0.042 0.029-0.079 0.026-0.081s-0.026-0.015-0.050-0.028c-0.025-0.013-0.057-0.064-0.072-0.116-0.015-0.051-0.041-0.117-0.057-0.146-0.029-0.054-0.029-0.054-0.030 0.024-0.003 0.234-0.071 0.388-0.212 0.481-0.12 0.078-0.208 0.156-0.194 0.171 0.007 0.007 0.094 0.004 0.193-0.007 0.144-0.016 0.186-0.015 0.21 0.009 0.025 0.025 0.003 0.043-0.143 0.116-0.095 0.048-0.179 0.098-0.187 0.111-0.010 0.017 0.083 0.019 0.326 0.008 0.289-0.013 0.36-0.009 0.469 0.022 0.153 0.044 0.345 0.15 0.375 0.206 0.012 0.023 0.021 0.257 0.021 0.56v0.52l-0.311 0.328 0.155 0.018c0.147 0.017 0.155 0.021 0.155 0.072v0.054l-0.383-0.030-0.157 0.133c-0.164 0.139-0.27 0.206-0.292 0.184-0.007-0.007 0.017-0.044 0.052-0.082 0.085-0.091 0.187-0.23 0.176-0.24-0.005-0.005-0.095 0.005-0.201 0.021-0.228 0.035-0.361 0.039-0.344 0.011 0.013-0.022 0.224-0.070 0.478-0.11 0.153-0.024 0.157-0.026 0.212-0.12 0.031-0.053 0.052-0.099 0.048-0.103s-0.129 0.020-0.276 0.054c-0.148 0.034-0.292 0.061-0.322 0.062-0.1 0 0.003-0.049 0.304-0.145 0.158-0.050 0.31-0.103 0.338-0.117 0.094-0.048 0.143-0.317 0.058-0.317-0.016 0-0.093 0.029-0.171 0.065-0.155 0.071-0.164 0.073-0.164 0.046 0-0.010 0.058-0.059 0.129-0.109s0.123-0.101 0.115-0.113c-0.025-0.041-0.157-0.082-0.263-0.082-0.137 0-0.239-0.021-0.239-0.049 0-0.012 0.015-0.040 0.034-0.060 0.044-0.048 0.022-0.083-0.052-0.084-0.032-0-0.082-0.015-0.111-0.031s-0.108-0.031-0.175-0.031c-0.144-0.001-0.435 0.036-0.511 0.064-0.030 0.011-0.082 0.031-0.117 0.043l-0.064 0.023 0.128 0.054c0.071 0.030 0.157 0.061 0.193 0.069 0.079 0.018 0.107 0.11 0.034 0.11-0.024 0-0.064 0.019-0.087 0.043-0.054 0.054-0.090 0.054-0.139 0-0.021-0.024-0.057-0.043-0.078-0.043-0.031 0-0.040 0.016-0.040 0.075 0 0.101-0.060 0.135-0.154 0.088-0.037-0.018-0.070-0.033-0.074-0.033s-0.027 0.039-0.051 0.086c-0.071 0.139-0.111 0.154-0.327 0.126-0.178-0.023-0.188-0.027-0.252-0.107-0.076-0.095-0.148-0.137-0.269-0.16-0.047-0.009-0.107-0.030-0.134-0.048-0.067-0.044-0.087-0.016-0.031 0.044 0.11 0.118 0.119 0.271 0.024 0.403-0.061 0.084-0.073 0.131-0.133 0.499-0.075 0.464-0.068 0.55 0.055 0.677 0.121 0.126 0.207 0.144 0.557 0.115 0.338-0.027 0.455-0.066 0.537-0.176 0.079-0.107 0.209-0.064 0.209 0.069 0 0.094-0.074 0.224-0.144 0.252-0.033 0.013-0.176 0.043-0.318 0.067-0.668 0.111-0.875 0.215-1.197 0.599-0.085 0.102-0.179 0.208-0.209 0.234-0.088 0.080-0.212 0.117-0.365 0.11-0.131-0.006-0.139-0.009-0.139-0.060 0-0.046 0.013-0.055 0.090-0.069 0.206-0.035 0.315-0.132 0.545-0.485 0.162-0.248 0.179-0.284 0.187-0.397 0.012-0.171-0.009-0.261-0.077-0.329-0.088-0.088-0.149-0.113-0.507-0.204-0.353-0.090-0.705-0.216-0.771-0.276-0.033-0.030-0.038-0.058-0.031-0.15 0.010-0.126-0.008-0.124-0.048 0.006-0.014 0.047-0.084 0.196-0.154 0.331-0.118 0.225-0.125 0.248-0.093 0.279 0.023 0.023 0.072 0.035 0.144 0.035 0.077 0 0.116 0.010 0.131 0.035 0.038 0.060 0.003 0.105-0.082 0.105-0.075 0-0.077 0.002-0.064 0.063 0.011 0.050 0.005 0.068-0.031 0.087-0.038 0.020-0.056 0.015-0.11-0.031-0.066-0.056-0.135-0.071-0.158-0.035-0.007 0.011-0.002 0.026 0.009 0.034 0.035 0.022 0.025 0.118-0.013 0.133-0.019 0.007-0.053 0.002-0.075-0.012s-0.065-0.019-0.094-0.012c-0.048 0.012-0.052 0.021-0.040 0.087 0.015 0.078-0.016 0.137-0.071 0.137-0.044 0-0.156-0.125-0.156-0.174 0-0.077-0.114-0.047-0.25 0.065-0.075 0.062-0.265 0.299-0.265 0.331 0 0.012 0.034 0.015 0.080 0.006 0.164-0.029 0.381-0.040 0.359-0.019-0.012 0.012-0.133 0.053-0.268 0.091s-0.26 0.081-0.277 0.095c-0.024 0.019-0.131 0.23-0.131 0.259 0 0.004 0.080-0.016 0.177-0.045 0.195-0.058 0.466-0.115 0.538-0.114 0.026 0.001-0.060 0.042-0.19 0.093-0.388 0.152-0.599 0.249-0.638 0.296-0.042 0.050-0.094 0.206-0.075 0.225 0.027 0.027 0.271-0.064 0.44-0.165 0.097-0.058 0.183-0.106 0.19-0.106s-0.018 0.038-0.054 0.084c-0.036 0.046-0.066 0.104-0.066 0.129 0 0.038 0.013 0.045 0.080 0.045 0.069 0 0.098-0.018 0.214-0.134 0.159-0.158 0.181-0.126 0.048 0.070-0.128 0.189-0.129 0.182 0.037 0.236 0.197 0.064 0.35 0.13 0.35 0.15 0 0.009-0.056 0.023-0.123 0.032s-0.182 0.035-0.255 0.058c-0.12 0.039-0.137 0.040-0.193 0.011s-0.068-0.029-0.137 0.011c-0.097 0.056-0.335 0.337-0.296 0.349 0.015 0.005 0.177 0.015 0.359 0.023 0.218 0.009 0.359 0.025 0.414 0.047l0.082 0.033-0.044 0.075c-0.024 0.041-0.039 0.081-0.033 0.087s0.050-0.006 0.098-0.027c0.047-0.021 0.091-0.034 0.098-0.028s-0.023 0.056-0.064 0.111c-0.042 0.055-0.072 0.099-0.068 0.099s0.073-0.030 0.152-0.066c0.079-0.036 0.155-0.062 0.168-0.058 0.034 0.011-0.161 0.215-0.253 0.264-0.042 0.022-0.076 0.049-0.076 0.058s0.018 0.008 0.040-0.004c0.022-0.012 0.107-0.035 0.189-0.052 0.089-0.019 0.2-0.062 0.277-0.108 0.070-0.043 0.135-0.077 0.144-0.077 0.030-0 0.016 0.040-0.038 0.104-0.076 0.091-0.067 0.102 0.038 0.041 0.050-0.029 0.114-0.060 0.143-0.069 0.051-0.016 0.052-0.015 0.037 0.107-0.013 0.112-0.011 0.122 0.024 0.107 0.087-0.037 0.135-0.037 0.135-0.002 0 0.038 0.033 0.047 0.053 0.015 0.007-0.011 0.091-0.079 0.186-0.151 0.161-0.122 0.176-0.128 0.203-0.093 0.016 0.021 0.029 0.080 0.030 0.13s0.009 0.091 0.019 0.091 0.050-0.040 0.089-0.089c0.066-0.082 0.074-0.086 0.099-0.051 0.015 0.021 0.032 0.049 0.036 0.062 0.005 0.015 0.049 0.002 0.116-0.035 0.107-0.058 0.108-0.058 0.146-0.016 0.021 0.023 0.046 0.043 0.054 0.043 0.021 0 0.059-0.099 0.076-0.2 0.008-0.046 0.025-0.078 0.038-0.074s0.058 0.068 0.099 0.14c0.041 0.073 0.082 0.133 0.091 0.133s0.016-0.053 0.016-0.117c0-0.064 0.010-0.123 0.022-0.13s0.054 0.006 0.094 0.031c0.112 0.069 0.12 0.061 0.12-0.109v-0.154l0.127 0.121c0.070 0.067 0.137 0.122 0.148 0.122 0.013 0 0.009-0.044-0.008-0.112-0.030-0.115-0.023-0.164 0.015-0.098 0.012 0.021 0.044 0.037 0.072 0.037 0.050 0 0.051-0.005 0.038-0.111-0.012-0.103-0.010-0.11 0.028-0.094 0.12 0.049 0.124 0.047 0.11-0.056l-0.013-0.096 0.122 0.018c0.237 0.035 0.222 0.043 0.172-0.085-0.032-0.082-0.007-0.111 0.096-0.112 0.085-0 0.318 0.1 0.373 0.162 0.046 0.051 0.083 0.204 0.068 0.278-0.006 0.031-0.020 0.027-0.090-0.029-0.046-0.037-0.091-0.062-0.1-0.056s-0.012 0.067-0.005 0.136c0.007 0.078 0.002 0.144-0.015 0.174l-0.026 0.049-0.051-0.048c-0.028-0.026-0.063-0.043-0.079-0.037s-0.056 0.094-0.090 0.196c-0.078 0.231-0.108 0.262-0.152 0.156-0.018-0.043-0.047-0.113-0.064-0.155s-0.043-0.073-0.057-0.069c-0.014 0.005-0.038 0.060-0.054 0.122-0.038 0.149-0.181 0.421-0.221 0.421-0.022 0-0.038-0.046-0.056-0.163-0.028-0.184-0.048-0.256-0.069-0.256-0.008 0-0.047 0.072-0.086 0.16-0.114 0.255-0.212 0.3-0.182 0.086 0.008-0.055 0.003-0.095-0.012-0.104-0.025-0.015-0.034-0.007-0.257 0.233-0.159 0.171-0.194 0.168-0.158-0.013 0.012-0.063 0.018-0.118 0.013-0.123-0.020-0.020-0.182 0.163-0.198 0.222-0.014 0.055-0.037 0.070-0.176 0.119-0.088 0.031-0.182 0.068-0.208 0.083-0.060 0.033-0.063 0.090-0.005 0.090 0.052 0 0.054 0.017 0.007 0.068-0.054 0.059-0.022 0.070 0.121 0.039 0.071-0.015 0.135-0.023 0.141-0.016 0.026 0.026-0.021 0.126-0.093 0.197-0.042 0.042-0.068 0.077-0.057 0.077s0.095-0.025 0.187-0.056c0.092-0.031 0.171-0.052 0.175-0.048 0.010 0.010-0.029 0.178-0.066 0.285-0.034 0.099-0.022 0.128 0.047 0.115 0.062-0.012 0.065 0.008 0.008 0.059-0.068 0.061-0.051 0.073 0.057 0.041 0.192-0.058 0.214-0.022 0.049 0.080-0.156 0.096-0.114 0.122 0.119 0.073 0.101-0.021 0.191-0.032 0.199-0.023s-0.011 0.037-0.044 0.063c-0.066 0.053-0.075 0.089-0.026 0.108 0.018 0.007 0.030 0.030 0.027 0.051-0.005 0.029 0.011 0.040 0.063 0.045 0.057 0.006 0.068 0.015 0.064 0.054-0.005 0.045 0.003 0.047 0.226 0.053 0.192 0.005 0.231 0.012 0.231 0.040 0 0.018 0.015 0.066 0.034 0.106l0.034 0.073 0.129-0.014c0.126-0.013 0.129-0.012 0.105 0.031-0.013 0.025-0.053 0.065-0.088 0.091s-0.064 0.063-0.064 0.083c0 0.020-0.009 0.046-0.020 0.058-0.032 0.032 0.023 0.177 0.072 0.19 0.023 0.006 0.084 0.005 0.135-0.002s0.093-0.004 0.093 0.006c0 0.010-0.034 0.046-0.075 0.079-0.080 0.064-0.096 0.116-0.043 0.136 0.018 0.007 0.032 0.026 0.032 0.042 0 0.018 0.022 0.030 0.054 0.030 0.067 0 0.071 0.050 0.007 0.095-0.074 0.052-0.026 0.067 0.085 0.027 0.056-0.020 0.125-0.036 0.154-0.036l0.052 0-0.058 0.060c-0.108 0.113-0.062 0.118 0.212 0.025 0.233-0.079 0.294-0.074 0.154 0.012-0.056 0.035-0.102 0.070-0.102 0.079s0.034 0.016 0.075 0.016c0.090 0 0.093 0.022 0.020 0.119l-0.056 0.073 0.055 0.055c0.049 0.050 0.066 0.054 0.16 0.041 0.132-0.017 0.15 0.009 0.079 0.113-0.046 0.068-0.050 0.083-0.023 0.098 0.018 0.010 0.068 0.008 0.112-0.005 0.117-0.033 0.119-0.031 0.103 0.072-0.016 0.109 0.002 0.13 0.086 0.098 0.075-0.028 0.091-0.011 0.042 0.043-0.042 0.046-0.027 0.090 0.015 0.047 0.014-0.014 0.082-0.025 0.15-0.025 0.152 0 0.18 0.037 0.094 0.126-0.071 0.075-0.043 0.11 0.088 0.11h0.093l-0.033 0.064c-0.018 0.036-0.031 0.065-0.027 0.066s0.034 0.005 0.068 0.010c0.034 0.005 0.072 0.018 0.085 0.031 0.038 0.038 0.142 0.025 0.271-0.033 0.082-0.037 0.151-0.053 0.206-0.048l0.084 0.007-0.091 0.049c-0.091 0.049-0.113 0.080-0.067 0.095 0.013 0.005-0.006 0.038-0.043 0.075-0.092 0.093-0.088 0.122 0.016 0.106 0.046-0.007 0.114-0.007 0.15 0l0.067 0.013v1.503l-0.059-0.042c-0.032-0.023-0.127-0.106-0.209-0.183s-0.181-0.158-0.219-0.179c-0.065-0.035-0.071-0.035-0.109-0.001-0.091 0.083-0.143 0.023-0.199-0.231-0.030-0.136-0.053-0.163-0.092-0.109-0.051 0.069-0.124 0.032-0.171-0.086-0.104-0.266-0.122-0.299-0.148-0.273-0.019 0.019-0.033 0.017-0.059-0.006-0.135-0.125-0.217-0.183-0.254-0.183-0.024 0-0.075-0.036-0.114-0.081-0.090-0.104-0.214-0.198-0.26-0.198-0.020-0-0.052 0.021-0.071 0.048l-0.034 0.048-0.043-0.052c-0.023-0.029-0.058-0.108-0.077-0.176-0.031-0.112-0.040-0.123-0.090-0.12-0.048 0.003-0.064-0.013-0.11-0.108-0.070-0.145-0.074-0.148-0.141-0.105-0.053 0.035-0.058 0.035-0.099-0.002-0.023-0.021-0.073-0.085-0.109-0.141s-0.072-0.103-0.079-0.103c-0.007 0-0.025 0.019-0.039 0.043s-0.034 0.043-0.043 0.043c-0.053-0-0.306-0.613-0.306-0.742 0-0.082-0.031-0.096-0.109-0.048-0.040 0.024-0.053 0.017-0.126-0.065-0.045-0.051-0.099-0.14-0.12-0.199-0.040-0.11-0.073-0.139-0.073-0.064 0 0.024-0.007 0.043-0.017 0.043-0.043 0-0.174-0.139-0.252-0.266-0.093-0.152-0.118-0.172-0.118-0.090 0 0.192-0.194-0.039-0.266-0.317-0.016-0.063-0.037-0.189-0.045-0.28s-0.023-0.165-0.033-0.165c-0.010 0-0.021-0.021-0.024-0.046-0.007-0.044-0.009-0.043-0.068 0.016l-0.061 0.062-0.097-0.108c-0.144-0.158-0.179-0.255-0.201-0.557-0.011-0.143-0.022-0.269-0.026-0.281s-0.032 0.024-0.064 0.079c-0.070 0.119-0.105 0.136-0.19 0.094-0.060-0.030-0.068-0.029-0.134 0.021-0.088 0.067-0.127 0.067-0.158-0.001-0.014-0.031-0.042-0.054-0.068-0.054-0.063 0-0.055-0.020 0.064-0.161 0.059-0.070 0.107-0.136 0.107-0.147s-0.036-0.014-0.080-0.007c-0.044 0.007-0.154 0.019-0.244 0.027-0.2 0.017-0.235-0.011-0.128-0.101 0.078-0.065 0.076-0.067-0.095-0.094-0.123-0.020-0.225-0.055-0.225-0.077 0-0.011 0.030-0.035 0.066-0.054s0.063-0.038 0.058-0.043c-0.005-0.005-0.1-0.019-0.211-0.032-0.228-0.027-0.364-0.058-0.364-0.082 0-0.009 0.077-0.048 0.172-0.087s0.172-0.080 0.172-0.092c0-0.029-0.237-0.002-0.353 0.040-0.061 0.022-0.158 0.029-0.332 0.025l-0.246-0.006-0.104 0.129c-0.115 0.142-0.38 0.527-0.529 0.767-0.052 0.085-0.099 0.143-0.104 0.129-0.014-0.044 0.229-0.5 0.418-0.785 0.101-0.151 0.179-0.277 0.175-0.28-0.076-0.042-0.093-0.059-0.087-0.093 0.007-0.039 0.050-0.084 0.098-0.101 0.047-0.017-0.009-0.042-0.115-0.053l-0.108-0.010-0.23 0.234c-0.222 0.225-0.412 0.481-0.525 0.707-0.074 0.147-0.167 0.411-0.167 0.473 0 0.028-0.010 0.057-0.021 0.064-0.039 0.024-0.024-0.255 0.022-0.387 0.098-0.284 0.272-0.552 0.584-0.896 0.104-0.114 0.189-0.214 0.189-0.22s-0.014-0.012-0.032-0.012c-0.054 0-0.036-0.033 0.038-0.069l0.070-0.034-0.060-0.024c-0.033-0.013-0.085-0.024-0.114-0.024-0.062 0-0.457 0.275-0.671 0.467-0.151 0.136-0.36 0.404-0.446 0.575-0.067 0.131-0.088 0.098-0.036-0.057 0.084-0.254 0.254-0.455 0.722-0.856 0.090-0.077 0.181-0.172 0.203-0.211 0.039-0.071 0.039-0.072-0.007-0.11-0.026-0.021-0.105-0.051-0.176-0.066l-0.13-0.027-0.392 0.276c-0.216 0.152-0.449 0.318-0.519 0.369s-0.132 0.087-0.139 0.079c-0.023-0.024 0.291-0.302 0.627-0.553 0.322-0.242 0.417-0.344 0.355-0.382-0.015-0.009-0.074-0.023-0.131-0.031-0.098-0.014-0.112-0.009-0.226 0.074-0.38 0.275-0.458 0.328-0.468 0.318-0.006-0.006-0.003-0.025 0.007-0.042 0.025-0.042 0.332-0.321 0.498-0.453l0.137-0.109-0.106-0.036c-0.136-0.046-0.243-0.102-0.243-0.126 0-0.011 0.029-0.026 0.064-0.033s0.064-0.022 0.064-0.032c0-0.010-0.054-0.049-0.121-0.088s-0.126-0.088-0.131-0.11c-0.006-0.022-0.042-0.054-0.081-0.070-0.067-0.028-0.070-0.033-0.053-0.107 0.019-0.083 0.004-0.11-0.099-0.177-0.028-0.018-0.051-0.046-0.051-0.060s-0.028-0.055-0.061-0.089c-0.053-0.054-0.065-0.088-0.087-0.266-0.046-0.362-0.024-0.322-0.263-0.485-0.227-0.155-0.331-0.259-0.471-0.47-0.105-0.159-0.267-0.49-0.374-0.764-0.092-0.237-0.353-0.767-0.439-0.892-0.032-0.047-0.15-0.236-0.262-0.419s-0.266-0.43-0.342-0.548c-0.286-0.441-0.422-0.738-0.538-1.171-0.062-0.232-0.066-0.274-0.068-0.635-0.002-0.433 0.008-0.476 0.147-0.63 0.115-0.127 0.204-0.162 0.409-0.159 0.458 0.007 1.027 0.211 2.189 0.784 0.667 0.329 0.697 0.341 1.037 0.382 0.301 0.037 0.315 0.037 0.389-0.001 0.169-0.086 0.541-0.38 0.942-0.742 0.164-0.148 0.611-0.449 0.847-0.57 0.298-0.153 0.491-0.212 0.976-0.302 0.373-0.069 0.687-0.147 0.791-0.196 0.056-0.027 0.062-0.042 0.077-0.19 0.107-1.034 0.206-1.521 0.457-2.261 0.166-0.489 0.384-0.992 0.518-1.196 0.089-0.136 0.199-0.23 0.316-0.272zM13.797 3.732c-0.090 0.097-0.31 0.506-0.44 0.818-0.045 0.107-0.054 0.152-0.037 0.173s0.009 0.094-0.030 0.272c-0.029 0.134-0.049 0.248-0.045 0.253s0.039-0.082 0.076-0.191c0.154-0.453 0.258-0.679 0.323-0.701 0.030-0.010 0.027 0.039-0.010 0.189-0.010 0.040 0.023 0.015 0.133-0.103 0.201-0.215 0.229-0.207 0.207 0.058-0.008 0.093-0.005 0.152 0.008 0.152 0.012 0 0.052-0.039 0.090-0.086s0.078-0.086 0.089-0.086c0.012 0 0.020 0.089 0.020 0.204 0 0.131 0.008 0.204 0.023 0.204 0.013 0 0.067-0.030 0.12-0.067 0.132-0.091 0.153-0.068 0.119 0.132-0.014 0.083-0.026 0.176-0.026 0.207 0 0.056 0.001 0.056 0.129 0.042l0.129-0.015-0.023 0.060c-0.012 0.033-0.047 0.111-0.077 0.172s-0.051 0.121-0.047 0.133c0.004 0.012 0.045 0.003 0.093-0.020 0.176-0.084 0.18-0.048 0.028 0.239-0.061 0.116-0.104 0.219-0.095 0.228s0.062-0.010 0.117-0.043c0.176-0.104 0.366-0.191 0.389-0.178 0.038 0.023-0.050 0.211-0.238 0.511-0.164 0.262-0.383 0.667-0.383 0.709 0 0.038 0.049 0.012 0.272-0.144 0.328-0.229 0.352-0.218 0.176 0.075-0.125 0.208-0.157 0.279-0.125 0.279 0.012 0 0.105-0.063 0.207-0.14 0.258-0.195 0.281-0.186 0.128 0.050-0.102 0.157-0.258 0.456-0.238 0.456 0.007 0 0.118-0.107 0.247-0.238 0.247-0.251 0.261-0.254 0.212-0.056-0.012 0.050-0.020 0.235-0.016 0.413l0.006 0.323 0.075-0.105c0.041-0.058 0.103-0.144 0.137-0.192 0.058-0.082 0.064-0.084 0.091-0.047 0.016 0.022 0.029 0.081 0.029 0.131s0.006 0.106 0.013 0.125c0.022 0.057 0.091 0.039 0.129-0.035 0.033-0.065 0.037-0.066 0.065-0.029 0.016 0.022 0.036 0.075 0.043 0.117 0.020 0.113 0.045 0.15 0.091 0.138 0.035-0.009 0.043 0.007 0.059 0.115 0.021 0.142 0.053 0.159 0.123 0.066 0.032-0.043 0.047-0.1 0.052-0.204 0.007-0.139 0.003-0.154-0.113-0.389-0.091-0.185-0.152-0.278-0.254-0.384l-0.134-0.139-0.013-0.347c-0.018-0.469-0.046-0.553-0.498-1.503-0.087-0.183-0.155-0.3-0.179-0.308-0.085-0.027-0.109-0.057-0.264-0.343-0.089-0.163-0.172-0.301-0.184-0.305s-0.034 0.017-0.048 0.047c-0.014 0.030-0.034 0.054-0.045 0.054-0.027 0-0.141-0.161-0.278-0.39-0.12-0.201-0.29-0.405-0.337-0.405-0.016 0-0.049 0.021-0.073 0.047zM11.426 7.599c-0.009 0.027-0.032 0.043-0.065 0.043-0.028 0-0.057 0.011-0.065 0.024s-0.043 0.019-0.078 0.014c-0.053-0.008-0.067 0-0.085 0.046-0.014 0.038-0.014 0.081 0.002 0.133 0.013 0.043 0.023 0.113 0.023 0.156 0 0.062-0.008 0.078-0.040 0.078-0.060 0-0.070 0.076-0.018 0.145 0.062 0.084 0.193 0.221 0.211 0.221 0.008 0 0.005-0.044-0.007-0.099-0.025-0.117-0.003-0.155 0.067-0.117 0.069 0.037 0.087 0.011 0.073-0.106-0.009-0.079-0.003-0.12 0.023-0.16 0.019-0.030 0.035-0.078 0.035-0.107 0-0.042 0.012-0.055 0.059-0.060 0.083-0.010 0.083-0.061 0.001-0.163-0.079-0.099-0.115-0.111-0.135-0.048zM13.099 7.814c-0.059 0.046-0.115 0.084-0.124 0.085s-0.028-0.023-0.041-0.053c-0.013-0.030-0.032-0.054-0.042-0.054-0.065 0-0.212 0.505-0.23 0.79l-0.014 0.22-0.096-0.076c-0.086-0.069-0.097-0.072-0.111-0.037-0.008 0.021-0.016 0.075-0.017 0.118-0.002 0.089-0.035 0.123-0.076 0.079-0.015-0.016-0.077-0.155-0.138-0.309-0.106-0.269-0.271-0.557-0.306-0.535-0.009 0.006-0.017 0.039-0.017 0.074 0 0.041-0.011 0.063-0.032 0.063-0.025 0-0.027 0.011-0.011 0.054 0.022 0.057 0.004 0.070-0.038 0.028-0.052-0.052-0.049 0.003 0.005 0.088 0.073 0.116 0.070 0.145-0.009 0.088-0.080-0.057-0.085-0.023-0.011 0.097 0.062 0.101 0.073 0.161 0.022 0.118-0.040-0.033-0.040-0.013-0.001 0.097 0.043 0.118 0.040 0.156-0.011 0.184-0.035 0.018-0.056 0.016-0.097-0.011-0.075-0.049-0.094-0.026-0.080 0.097 0.013 0.106 0.012 0.107-0.055 0.12-0.037 0.007-0.067 0.025-0.067 0.040 0 0.025 0.058 0.109 0.187 0.268 0.058 0.071 0.058 0.073 0.011 0.061-0.067-0.017-0.062 0.015 0.027 0.201 0.081 0.17 0.099 0.259 0.043 0.212-0.026-0.022-0.040-0.018-0.074 0.024-0.023 0.028-0.043 0.067-0.043 0.087s-0.020 0.042-0.044 0.050c-0.029 0.009-0.043 0.033-0.043 0.073 0 0.080-0.013 0.089-0.091 0.062-0.048-0.017-0.076-0.016-0.105 0.002-0.056 0.035-0.055 0.036-0.125-0.077-0.035-0.056-0.065-0.088-0.067-0.070s-0.005 0.042-0.008 0.054c-0.003 0.012-0.006 0.038-0.008 0.059-0.011 0.128-0.176-0.080-0.221-0.278-0.014-0.064-0.034-0.121-0.043-0.127s-0.038 0.019-0.065 0.055c-0.086 0.117-0.108 0.094-0.147-0.154-0.029-0.185-0.040-0.211-0.088-0.211-0.031 0-0.044 0.021-0.055 0.091-0.015 0.096-0.031 0.082-0.061-0.058-0.014-0.063-0.015-0.063-0.046-0.022-0.028 0.038-0.034 0.039-0.051 0.009-0.011-0.019-0.039-0.057-0.064-0.086l-0.044-0.052-0.034 0.048c-0.050 0.070-0.065 0.061-0.093-0.059-0.014-0.059-0.033-0.108-0.042-0.108s-0.029 0.029-0.043 0.064-0.034 0.060-0.043 0.054c-0.009-0.005-0.032-0.066-0.052-0.134-0.036-0.127-0.095-0.249-0.101-0.21-0.002 0.012-0.002 0.046-0 0.075 0.004 0.094-0.028 0.122-0.108 0.091-0.038-0.014-0.073-0.023-0.077-0.018-0.014 0.014 0.146 0.404 0.254 0.621 0.104 0.209 0.124 0.273 0.084 0.273-0.012 0-0.027 0.024-0.034 0.054-0.009 0.035-0.029 0.054-0.056 0.054-0.094 0-0.476-0.090-0.69-0.163-0.125-0.042-0.252-0.074-0.284-0.070-0.052 0.006-0.044 0.014 0.075 0.081 0.146 0.082 0.139 0.104-0.036 0.107-0.062 0.001-0.091 0.011-0.091 0.031 0 0.030 0.048 0.054 0.204 0.1 0.122 0.036 0.142 0.063 0.047 0.063-0.044 0-0.079 0.008-0.079 0.017s0.051 0.043 0.113 0.074l0.113 0.057-0.103 0.001c-0.090 0.001-0.102 0.006-0.091 0.041 0.009 0.029-0.022 0.068-0.122 0.153-0.156 0.133-0.166 0.146-0.264 0.344-0.078 0.158-0.091 0.228-0.047 0.243 0.020 0.007 0.005 0.075-0.054 0.254-0.044 0.135-0.081 0.262-0.080 0.284 0.001 0.057 0.057 0.068 0.124 0.025 0.079-0.052 0.103-0.084 0.174-0.235 0.033-0.071 0.096-0.181 0.139-0.244 0.091-0.134 0.096-0.17 0.030-0.195-0.057-0.022-0.047-0.027 0.155-0.077 0.077-0.019 0.202-0.054 0.279-0.078 0.242-0.075 0.516-0.107 0.725-0.084 0.233 0.025 0.301 0.048 0.476 0.164 0.157 0.104 0.445 0.425 0.543 0.605 0.034 0.062 0.068 0.117 0.077 0.123s0.033-0.042 0.053-0.106c0.020-0.064 0.046-0.122 0.057-0.129s0.021-0.080 0.021-0.162c0-0.132-0.005-0.149-0.040-0.149-0.053 0-0.074-0.032-0.107-0.161-0.015-0.059-0.060-0.167-0.101-0.241-0.064-0.115-0.082-0.133-0.131-0.129-0.063 0.005-0.058 0.011-0.199-0.287-0.080-0.17-0.105-0.257-0.074-0.257 0.042 0 0.157 0.074 0.178 0.115 0.014 0.027 0.068 0.074 0.12 0.105 0.072 0.044 0.119 0.099 0.196 0.232 0.085 0.147 0.106 0.17 0.126 0.142 0.021-0.029 0.030-0.026 0.070 0.027 0.071 0.097 0.113 0.212 0.158 0.442 0.023 0.118 0.045 0.217 0.049 0.222 0.009 0.009 0.121-0.174 0.156-0.255 0.013-0.031 0.031-0.104 0.038-0.161s0.024-0.156 0.035-0.218c0.025-0.13 0.046-0.137 0.22-0.078 0.125 0.043 0.158 0.022 0.124-0.076-0.026-0.073-0.019-0.077 0.080-0.042 0.038 0.013 0.074 0.018 0.081 0.012s-0.023-0.061-0.065-0.121c-0.043-0.060-0.078-0.128-0.078-0.153s-0.024-0.080-0.054-0.123c-0.030-0.044-0.054-0.102-0.054-0.129s-0.011-0.071-0.025-0.097c-0.014-0.026-0.034-0.086-0.044-0.133-0.040-0.182-0.056-0.239-0.088-0.314-0.022-0.051-0.026-0.085-0.012-0.099s0.014-0.041-0.001-0.080c-0.019-0.051-0.017-0.061 0.020-0.070 0.023-0.006 0.050-0.036 0.061-0.067 0.018-0.054 0.021-0.052 0.095 0.072 0.042 0.070 0.088 0.163 0.101 0.206s0.063 0.141 0.11 0.219c0.095 0.158 0.108 0.241 0.042 0.262-0.080 0.025-0.046 0.115 0.103 0.272 0.057 0.060 0.072 0.091 0.062 0.13-0.011 0.042 0.011 0.072 0.129 0.179 0.217 0.196 0.329 0.271 0.381 0.255 0.067-0.021 0.066-0.021-0.025-0.125-0.179-0.204-0.284-0.468-0.285-0.715-0.001-0.389 0.14-0.729 0.418-1.008 0.185-0.186 0.307-0.264 0.588-0.378l0.18-0.073 0.032 0.048c0.018 0.027 0.041 0.048 0.052 0.048 0.029 0 0.278-0.181 0.323-0.235 0.021-0.024 0.052-0.044 0.070-0.044s0.032-0.008 0.032-0.019c0-0.023-0.159-0.046-0.314-0.046-0.076 0-0.113-0.008-0.11-0.025 0.003-0.014-0.032-0.040-0.078-0.058-0.075-0.030-0.1-0.029-0.256 0.004-0.095 0.020-0.177 0.032-0.183 0.026s0.013-0.029 0.041-0.052c0.083-0.068 0.034-0.074-0.11-0.013-0.073 0.031-0.139 0.051-0.146 0.044s0.014-0.039 0.045-0.072c0.069-0.073 0.070-0.082 0.011-0.097-0.027-0.007-0.089 0.010-0.15 0.041-0.057 0.029-0.104 0.044-0.104 0.033s0.028-0.082 0.062-0.157c0.077-0.172 0.096-0.232 0.074-0.231-0.010 0.001-0.066 0.039-0.125 0.085zM5.048 7.985c-0.2 0.043-0.289 0.133-0.314 0.319-0.025 0.191 0.048 0.567 0.183 0.941 0.090 0.248 0.412 0.894 0.567 1.138 0.068 0.106 0.163 0.261 0.211 0.344s0.124 0.206 0.168 0.274c0.196 0.304 0.587 1.026 0.76 1.405 0.124 0.273 0.534 0.621 0.792 0.675 0.213 0.044 0.246-0.011 0.052-0.088-0.071-0.028-0.129-0.057-0.129-0.065s0.059-0.015 0.13-0.017c0.237-0.005 0.28-0.076 0.098-0.16-0.235-0.108-0.679-0.441-0.616-0.462 0.013-0.005 0.088 0.003 0.166 0.016s0.146 0.020 0.152 0.014c0.006-0.006-0.056-0.044-0.137-0.085s-0.186-0.106-0.233-0.144l-0.086-0.070 0.143 0.027-0.055-0.066c-0.030-0.036-0.055-0.073-0.055-0.081s0.050-0.066 0.11-0.129c0.093-0.096 0.105-0.118 0.080-0.142-0.016-0.015-0.139-0.069-0.272-0.12-0.306-0.117-0.379-0.179-0.613-0.533-0.437-0.659-1.020-1.823-1.060-2.117-0.010-0.073-0.006-0.081 0.038-0.081 0.057 0 0.622 0.553 0.622 0.608 0 0.019-0.019 0.040-0.043 0.047s-0.043 0.020-0.043 0.028c0 0.020 0.196 0.13 0.375 0.211 0.083 0.037 0.15 0.081 0.15 0.097s-0.038 0.039-0.090 0.051c-0.049 0.012-0.095 0.027-0.102 0.035-0.022 0.022 0.038 0.058 0.2 0.12 0.2 0.077 0.202 0.094 0.024 0.164l-0.075 0.030 0.155 0.048c0.085 0.026 0.196 0.075 0.246 0.109 0.071 0.048 0.125 0.064 0.252 0.075 0.089 0.008 0.248 0.043 0.354 0.078 0.207 0.069 0.633 0.271 0.633 0.301 0 0.010-0.067 0.018-0.149 0.018-0.151 0-0.708 0.093-0.772 0.128-0.044 0.025-0.040 0.026 0.266 0.083 0.248 0.047 0.557 0.139 0.609 0.182 0.025 0.021 0.013 0.028-0.064 0.040-0.052 0.008-0.143 0.015-0.202 0.016-0.23 0.004-0.226 0.025 0.019 0.103 0.145 0.046 0.227 0.082 0.222 0.098-0.010 0.030-0.133 0.055-0.284 0.057-0.129 0.002-0.204 0.020-0.204 0.049 0 0.012 0.044 0.060 0.098 0.108s0.122 0.134 0.152 0.194l0.054 0.107-0.071-0.013c-0.039-0.007-0.109-0.020-0.155-0.027l-0.083-0.014 0.101 0.094c0.056 0.051 0.115 0.12 0.132 0.152s0.051 0.062 0.077 0.066c0.087 0.013 0.063 0.054-0.064 0.111-0.070 0.031-0.138 0.057-0.151 0.057s-0.024 0.008-0.024 0.019c0 0.027 0.223 0.085 0.393 0.102 0.163 0.016 0.163 0.030-0.001 0.083-0.132 0.043-0.153 0.088-0.032 0.067 0.144-0.026 0.302-0.117 0.381-0.221 0.090-0.119 0.094-0.144 0.016-0.126-0.032 0.008-0.102 0.019-0.156 0.025l-0.097 0.011 0.054-0.046c0.029-0.025 0.095-0.079 0.145-0.121s0.091-0.083 0.091-0.094c0-0.010-0.041-0.013-0.091-0.008l-0.091 0.011 0.15-0.139c0.083-0.077 0.144-0.146 0.136-0.154s-0.055-0.004-0.104 0.010c-0.050 0.013-0.095 0.020-0.1 0.014-0.021-0.021 0.037-0.094 0.163-0.204 0.072-0.063 0.131-0.123 0.131-0.134s-0.050-0.014-0.123-0.006l-0.123 0.014 0.080-0.098c0.044-0.054 0.080-0.11 0.080-0.125s0.039-0.068 0.086-0.12 0.086-0.103 0.086-0.115c0-0.012-0.034-0.022-0.075-0.022-0.105 0-0.094-0.033 0.032-0.097 0.059-0.030 0.107-0.059 0.107-0.064s-0.030-0.026-0.068-0.045c-0.078-0.040-0.059-0.063 0.072-0.085 0.107-0.018 0.122-0.050 0.050-0.107l-0.059-0.047 0.114-0.090-0.046-0.049c-0.043-0.046-0.043-0.051-0.008-0.076 0.020-0.015 0.050-0.027 0.065-0.027 0.038 0 0.036-0.032-0.004-0.065-0.051-0.042-0.038-0.086 0.032-0.111 0.035-0.012 0.064-0.031 0.064-0.042s-0.053-0.053-0.117-0.094c-0.138-0.088-0.151-0.105-0.108-0.14 0.052-0.043 0.037-0.064-0.049-0.065-0.092-0.001-0.326-0.085-0.327-0.117-0-0.012 0.065-0.026 0.144-0.032l0.145-0.011-0.113-0.063c-0.105-0.058-0.142-0.099-0.091-0.099 0.064 0-0.007-0.048-0.257-0.172-0.153-0.076-0.279-0.147-0.279-0.158s0.016-0.013 0.034-0.006c0.123 0.047 0.772 0.208 0.817 0.202 0.031-0.004 0.076-0.034 0.1-0.067 0.066-0.089 0.031-0.124-0.17-0.168-0.234-0.051-1.069-0.339-1.4-0.482-0.15-0.065-0.401-0.196-0.558-0.292-0.321-0.195-0.494-0.279-0.681-0.33-0.152-0.041-0.562-0.061-0.691-0.034zM4.494 8.373c0 0.16 0.003 0.225 0.008 0.145s0.004-0.21 0-0.29c-0.004-0.080-0.008-0.014-0.008 0.145zM9.947 8.184c-0.017 0.027-0.038 0.075-0.046 0.107s-0.028 0.069-0.044 0.083c-0.017 0.014-0.030 0.058-0.030 0.098 0 0.082-0.012 0.087-0.082 0.038-0.027-0.019-0.052-0.031-0.056-0.027-0.013 0.013 0.037 0.243 0.059 0.271 0.036 0.046 0.082 0.030 0.171-0.059 0.047-0.047 0.092-0.086 0.099-0.086s0.045 0.049 0.084 0.107c0.075 0.115 0.11 0.133 0.128 0.064 0.017-0.065 0.011-0.067 0.238 0.099 0.027 0.020 0.054 0.031 0.061 0.024 0.012-0.013-0.067-0.313-0.088-0.335-0.007-0.007-0.035 0.015-0.062 0.050l-0.050 0.062-0.043-0.117c-0.024-0.064-0.050-0.139-0.059-0.167-0.013-0.042-0.025-0.047-0.077-0.036-0.059 0.013-0.063 0.009-0.096-0.106-0.038-0.131-0.058-0.144-0.105-0.071zM5.401 8.402c-0.008 0.022 0.024 0.037 0.121 0.056 0.174 0.034 0.451 0.158 0.761 0.341 0.457 0.27 1.038 0.541 1.161 0.541 0.039 0-0.16-0.131-0.592-0.389-0.328-0.196-0.867-0.464-1.073-0.533-0.156-0.052-0.36-0.061-0.378-0.015zM15.153 8.785c-0.074 0.025-0.134 0.051-0.134 0.058s0.065 0.014 0.145 0.014c0.101 0.001 0.211 0.022 0.363 0.070 0.209 0.066 0.35 0.084 0.425 0.055 0.054-0.021-0.311-0.181-0.49-0.215-0.182-0.035-0.146-0.037-0.308 0.018zM13.874 8.971c-0.006 0.010 0.056 0.046 0.14 0.079 0.179 0.070 0.286 0.166 0.386 0.345 0.062 0.109 0.074 0.121 0.080 0.078 0.020-0.142-0.155-0.371-0.347-0.454-0.112-0.048-0.243-0.072-0.259-0.047zM14.966 9.089c-0.059 0.028-0.125 0.071-0.146 0.095s-0.071 0.168-0.111 0.32c-0.126 0.481-0.178 0.598-0.342 0.779-0.091 0.099-0.346 0.242-0.544 0.304-0.063 0.020-0.112 0.045-0.109 0.056 0.007 0.032 0.428 0.183 0.547 0.196 0.111 0.012 0.352-0.041 0.352-0.078 0-0.021-0.075-0.044-0.145-0.045-0.076-0.001-0.057-0.031 0.054-0.084 0.209-0.101 0.492-0.283 0.595-0.383l0.107-0.103-0.172-0.022 0.088-0.097c0.13-0.143 0.241-0.295 0.3-0.411 0.051-0.101 0.051-0.104 0.011-0.126-0.023-0.012-0.072-0.022-0.109-0.022-0.080 0-0.15-0.034-0.15-0.072 0-0.033 0.183-0.229 0.214-0.229 0.058 0 0.011-0.043-0.080-0.073-0.188-0.061-0.244-0.062-0.359-0.006zM13.467 9.117c-0.212 0.065-0.38 0.209-0.478 0.41-0.075 0.153-0.092 0.346-0.041 0.467 0.043 0.103 0.063 0.086 0.109-0.095 0.048-0.187 0.098-0.279 0.205-0.376 0.103-0.093 0.205-0.142 0.299-0.142 0.052 0 0.075 0.017 0.118 0.084 0.029 0.046 0.063 0.091 0.076 0.098s0.065-0.011 0.117-0.041c0.052-0.030 0.1-0.055 0.107-0.055 0.032 0 0.192 0.167 0.228 0.24 0.045 0.088 0.054 0.243 0.021 0.357-0.023 0.080-0.007 0.087 0.068 0.027 0.177-0.139 0.157-0.477-0.042-0.709-0.148-0.174-0.411-0.303-0.607-0.3-0.041 0.001-0.122 0.016-0.18 0.033zM9.896 11.144c-0.312 0.108-0.504 0.537-0.402 0.895 0.082 0.289 0.23 0.442 0.441 0.455 0.115 0.007 0.217-0.027 0.154-0.052-0.072-0.029-0.214-0.158-0.276-0.25-0.078-0.117-0.125-0.306-0.105-0.429 0.033-0.205 0.208-0.422 0.378-0.468 0.123-0.033 0.156-0.022 0.173 0.059 0.020 0.098 0.057 0.134 0.136 0.134 0.083 0 0.12-0.033 0.12-0.108 0-0.069-0.059-0.125-0.223-0.212-0.146-0.077-0.231-0.083-0.395-0.026zM12.885 11.458c-0.012 0.004-0.047 0.013-0.077 0.020s-0.125 0.074-0.209 0.15c-0.114 0.102-0.179 0.144-0.255 0.163-0.237 0.059-0.413 0.183-0.413 0.291 0 0.026 0.016 0.017 0.056-0.031 0.077-0.092 0.159-0.13 0.281-0.13 0.176-0 0.246-0.032 0.358-0.162 0.143-0.166 0.186-0.189 0.376-0.203l0.163-0.012-0.064-0.035c-0.069-0.037-0.179-0.063-0.214-0.051zM9.284 11.777c-0.008 0.021-0.015 0.097-0.015 0.167 0 0.179 0.068 0.329 0.176 0.387 0.041 0.022 0.045 0.035-0.048-0.196-0.026-0.065-0.059-0.181-0.073-0.258-0.018-0.095-0.031-0.127-0.041-0.1zM15.158 11.844c-0.023 0.017-0.077 0.032-0.12 0.032-0.053 0.001-0.101 0.019-0.145 0.057-0.048 0.040-0.081 0.052-0.118 0.043-0.069-0.017-0.119 0.004-0.141 0.062-0.014 0.038-0.031 0.045-0.082 0.038s-0.067-0-0.078 0.036c-0.030 0.094 0.057 0.189 0.124 0.135 0.014-0.012 0.067-0.033 0.118-0.049s0.11-0.050 0.132-0.078c0.028-0.035 0.061-0.050 0.114-0.050 0.041 0 0.087-0.014 0.101-0.032s0.066-0.043 0.115-0.056c0.121-0.033 0.148-0.075 0.087-0.136-0.042-0.042-0.055-0.042-0.107-0.002zM12.976 12.019c-0.067 0.036-0.072 0.066-0.028 0.171 0.033 0.079 0.141 0.226 0.167 0.226 0.008 0-0.008-0.051-0.037-0.113-0.061-0.13-0.068-0.221-0.019-0.24 0.019-0.007 0.077-0.013 0.129-0.013 0.094 0 0.126-0.027 0.061-0.052-0.061-0.023-0.212-0.012-0.272 0.021zM15.277 12.101c0 0.063 0.028 0.098 0.076 0.098 0.064 0 0.082-0.030 0.053-0.085-0.027-0.050-0.129-0.061-0.129-0.013zM8.902 12.291c-0.128 0.119-0.276 0.371-0.276 0.471 0 0.005 0.063 0.005 0.14 0 0.15-0.009 0.193 0.009 0.226 0.096 0.027 0.072 0.193 0.111 0.543 0.128 0.374 0.018 0.545-0.008 0.758-0.115 0.131-0.066 0.16-0.073 0.188-0.049 0.025 0.021 0.030 0.048 0.020 0.103l-0.014 0.075 0.132-0.071c0.222-0.119 0.316-0.267 0.281-0.443-0.021-0.109-0.056-0.193-0.087-0.213-0.014-0.009-0.101 0.037-0.2 0.103-0.211 0.143-0.309 0.193-0.463 0.239-0.145 0.043-0.473 0.046-0.608 0.005-0.105-0.032-0.403-0.231-0.482-0.323-0.059-0.068-0.091-0.070-0.159-0.007zM15.027 12.34c-0.014 0.038 0.027 0.097 0.069 0.097 0.016 0 0.039-0.020 0.052-0.043 0.020-0.037 0.015-0.046-0.033-0.065-0.072-0.027-0.074-0.027-0.088 0.011zM12.26 12.412c-0.115 0.085-0.187 0.167-0.17 0.195 0.032 0.052 0.123 0.021 0.228-0.077 0.123-0.116 0.137-0.111 0.201 0.068 0.052 0.144 0.076 0.166 0.076 0.068 0-0.088-0.047-0.217-0.101-0.277-0.050-0.056-0.138-0.047-0.234 0.023zM16.523 12.641c-0.099 0.165-0.271 0.32-0.406 0.367-0.066 0.023-0.089 0.022-0.14-0.005-0.034-0.018-0.065-0.028-0.070-0.023s-0.041 0.097-0.081 0.205c-0.133 0.359-0.239 0.492-0.643 0.814-0.143 0.114-0.391 0.34-0.55 0.502-0.309 0.315-0.382 0.367-0.66 0.473-0.097 0.037-0.177 0.075-0.177 0.085 0 0.075 0.255 0.015 0.526-0.123 0.165-0.085 0.227-0.134 0.431-0.34 0.228-0.231 0.245-0.244 0.386-0.285 0.357-0.104 0.606-0.158 0.641-0.138 0.027 0.015 0.007 0.026-0.089 0.047-0.14 0.031-0.629 0.235-0.629 0.263 0 0.010 0.028 0.018 0.063 0.018 0.073 0 0.13 0.019 0.13 0.043 0 0.009-0.075 0.034-0.166 0.054s-0.184 0.049-0.205 0.064c-0.035 0.025-0.032 0.031 0.038 0.072 0.097 0.057 0.096 0.081-0.004 0.099-0.227 0.039-0.244 0.052-0.134 0.109 0.098 0.051 0.077 0.073-0.054 0.060-0.141-0.015-0.154 0.014-0.031 0.070 0.118 0.053 0.127 0.079 0.023 0.062-0.095-0.015-0.282 0.006-0.282 0.032 0 0.019 0.485 0.176 0.54 0.175 0.020-0 0.094 0.018 0.164 0.040 0.145 0.045 0.194 0.034 0.156-0.036-0.013-0.024-0.024-0.051-0.024-0.059 0-0.017 0.246 0.001 0.316 0.023 0.058 0.018 0.065-0.024 0.019-0.114-0.016-0.032-0.036-0.080-0.044-0.106-0.014-0.044-0.008-0.048 0.062-0.048 0.042 0 0.11 0.014 0.15 0.030s0.078 0.025 0.084 0.019c0.006-0.006-0.017-0.068-0.052-0.137s-0.063-0.136-0.063-0.148c0-0.012 0.052-0.022 0.118-0.022 0.065 0 0.118-0.007 0.118-0.015s-0.031-0.047-0.069-0.086c-0.077-0.079-0.080-0.077 0.128-0.071 0.166 0.005 0.139-0.042-0.054-0.096-0.027-0.008-0.048-0.021-0.048-0.031 0-0.021 0.162-0.044 0.313-0.044 0.063 0 0.119-0.009 0.126-0.020s-0.031-0.056-0.084-0.099c-0.053-0.044-0.091-0.088-0.085-0.098s0.052-0.020 0.102-0.021c0.049-0.001 0.114-0.009 0.144-0.017 0.053-0.015 0.052-0.016-0.041-0.084-0.052-0.038-0.107-0.069-0.122-0.069s-0.033-0.009-0.040-0.019c-0.007-0.011 0.051-0.018 0.133-0.016l0.145 0.003-0.007-0.072c-0.004-0.044 0.006-0.086 0.027-0.11 0.030-0.033 0.033-0.115 0.028-0.649l-0.006-0.611-0.052 0.086zM12.852 12.707c0.059 0.099 0.151 0.2 0.151 0.166 0-0.013-0.032-0.070-0.071-0.127-0.088-0.128-0.151-0.159-0.080-0.039zM7.897 12.947c-0.162 0.166-0.231 0.284-0.186 0.315 0.023 0.016 0.019 0.049-0.022 0.18-0.028 0.088-0.048 0.162-0.045 0.164s0.032 0.015 0.064 0.028c0.048 0.021 0.059 0.040 0.064 0.117 0.007 0.092 0.007 0.092 0.086 0.088s0.079-0.004 0.093 0.097c0.017 0.129 0.076 0.327 0.097 0.327 0.009 0 0.027-0.046 0.041-0.102s0.044-0.153 0.066-0.214c0.023-0.062 0.033-0.117 0.023-0.123s-0.047-0.003-0.082 0.008c-0.111 0.032-0.13-0.001-0.074-0.132 0.062-0.145 0.064-0.159 0.025-0.148-0.018 0.005-0.059 0.013-0.091 0.019l-0.059 0.010v-0.152c0-0.132 0.013-0.181 0.097-0.379 0.053-0.125 0.097-0.231 0.097-0.237 0-0.041-0.072 0.009-0.193 0.134zM9.003 13.358c-0.090 0.020-0.090 0.055-0.001 0.123 0.070 0.053 0.074 0.063 0.043 0.086s-0.030 0.031 0.019 0.081c0.069 0.069 0.069 0.108 0.001 0.139-0.074 0.034-0.067 0.058 0.030 0.113 0.094 0.053 0.142 0.124 0.123 0.184-0.007 0.022-0.056 0.068-0.11 0.101-0.137 0.086-0.129 0.105 0.056 0.132 0.080 0.012 0.119 0.002 0.261-0.064 0.162-0.075 0.172-0.084 0.282-0.255 0.126-0.196 0.152-0.218 0.366-0.309 0.178-0.076 0.212-0.126 0.072-0.106-0.052 0.007-0.203 0.020-0.335 0.027-0.22 0.013-0.241 0.011-0.241-0.023 0-0.032-0.014-0.035-0.105-0.023-0.133 0.018-0.152-0.011-0.056-0.084 0.138-0.105 0.089-0.142-0.182-0.138-0.088 0.001-0.189 0.008-0.224 0.016zM11.638 13.528c-0.013 0.009-0.035 0.038-0.049 0.064-0.018 0.034-0.045 0.048-0.090 0.048-0.053 0-0.070 0.013-0.096 0.074s-0.046 0.077-0.122 0.092c-0.079 0.016-0.092 0.026-0.098 0.078-0.005 0.041-0.029 0.073-0.079 0.103-0.088 0.052-0.103 0.087-0.062 0.145 0.042 0.060 0.085 0.057 0.128-0.008 0.023-0.036 0.055-0.054 0.094-0.054 0.067 0 0.095-0.027 0.115-0.112 0.012-0.050 0.026-0.059 0.103-0.065 0.081-0.006 0.092-0.014 0.114-0.082 0.018-0.054 0.040-0.077 0.077-0.083 0.072-0.010 0.105-0.043 0.105-0.101 0-0.084-0.081-0.141-0.142-0.101zM8.598 14.064c-0.091 0.145-0.144 0.262-0.144 0.319 0 0.038 0.034 0.092 0.104 0.166l0.104 0.11 0.084-0.050c0.154-0.093 0.2-0.151 0.119-0.151-0.034 0-0.041-0.023-0.052-0.17-0.013-0.196-0.050-0.289-0.117-0.299-0.035-0.005-0.060 0.015-0.099 0.075zM10.937 14.396c-0.056 0.031-0.046 0.101 0.015 0.117 0.065 0.016 0.098-0.002 0.098-0.056s-0.064-0.088-0.113-0.061zM8.891 14.664c-0.081 0.043-0.15 0.081-0.155 0.085-0.015 0.014 0.063 0.198 0.094 0.224 0.042 0.035 0.418-0.184 0.418-0.243 0-0.035-0.011-0.039-0.077-0.027-0.042 0.008-0.091 0.020-0.109 0.027-0.026 0.010-0.030-0.001-0.018-0.066 0.008-0.043 0.010-0.078 0.003-0.078s-0.077 0.035-0.158 0.078zM9.111 15.008l-0.083 0.056 0.175 0.076c0.096 0.041 0.181 0.070 0.188 0.063 0.022-0.023-0.146-0.251-0.185-0.251-0.007 0-0.050 0.025-0.095 0.056zM9.899 15.323c-0.162 0.12-0.229 0.192-0.198 0.212 0.037 0.024 0.168 0.062 0.213 0.062 0.031 0 0.279-0.271 0.279-0.305 0-0.009-0.051-0.017-0.114-0.017-0.084 0-0.131 0.012-0.179 0.048zM9.577 15.311c-0.051 0.010-0.077 0.054-0.058 0.102 0.024 0.063 0.079 0.056 0.183-0.024 0.058-0.044 0.105-0.083 0.105-0.086 0-0.009-0.173-0.002-0.229 0.009zM12.906 15.36c-0.059 0.022-0.128 0.040-0.152 0.041s-0.157 0.055-0.293 0.12c-0.267 0.127-0.293 0.136-0.251 0.085 0.045-0.054 0.016-0.053-0.119 0.002-0.182 0.074-0.245 0.069-0.171-0.013 0.056-0.062-0.014-0.096-0.211-0.1-0.108-0.002-0.177-0.013-0.187-0.030-0.011-0.019-0.062 0.004-0.174 0.078-0.152 0.101-0.156 0.105-0.094 0.112 0.035 0.004 0.116-0.004 0.179-0.018s0.118-0.022 0.123-0.017c0.005 0.005-0.011 0.059-0.034 0.12s-0.042 0.12-0.042 0.131c0 0.010 0.056-0.004 0.123-0.032 0.144-0.059 0.22-0.066 0.22-0.020 0 0.044 0.035 0.041 0.239-0.024 0.118-0.037 0.18-0.048 0.185-0.032 0.013 0.038 0.037 0.030 0.289-0.096 0.245-0.123 0.514-0.287 0.54-0.329 0.021-0.034-0.046-0.027-0.17 0.019z"></path>

</symbol>
</defs>
</svg>
