<svg aria-hidden="true" style="position: absolute; width: 0; height: 0; overflow: hidden;" version="1.1" xmlns="http://www.w3.org/2000/svg" xmlns:xlink="http://www.w3.org/1999/xlink">
<defs>
<symbol id="icon-Group-3" viewBox="0 0 40 32">
<path d="M9.2 4.229l-0.181 0.223h0.341c0.187 0 0.562-0.064 0.833-0.141 0.311-0.089 0.492-0.088 0.492 0.005 0 0.080-0.273 0.627-0.606 1.216s-0.606 1.135-0.606 1.213 0.161 0.465 0.358 0.858c0.453 0.904 0.602 1.716 0.462 2.515l-0.11 0.626-0.133-0.499c-0.181-0.674-0.725-0.926-1.253-0.581-0.452 0.296-0.514 0.913-0.134 1.333 0.31 0.342 0.637 0.352 1.093 0.032l0.35-0.245-0.225 0.435c-0.316 0.611-0.774 0.989-1.063 0.879-0.354-0.136-1.142-1.386-1.256-1.992-0.177-0.945 0.127-2.255 0.717-3.082 0.13-0.183 0.013-0.485-0.549-1.411-0.394-0.648-0.676-1.218-0.627-1.266s0.43-0.021 0.848 0.062c0.418 0.083 0.795 0.115 0.838 0.072s0 0 0.415-0.251zM32.226 1.528c0.256-0.31 0.529-0.563 0.609-0.563 0.202 0 0.401 0.581 0.607 1.778 0.14 0.817 0.284 1.146 0.7 1.61 0.613 0.683 1.581 2.149 1.853 2.806 0.26 0.627 0.539 0.649 1.598 0.126 0.499-0.246 0.823-0.347 0.721-0.224s-0.454 0.345-0.782 0.493c-0.838 0.378-0.541 0.677 0.595 0.598 0.806-0.056 0.814-0.052 0.227 0.089-1.602 0.386-1.987 0.616-1.632 0.971 0.119 0.12 0.196 0.449 0.927 3.962 0.862 4.15 0.886 5.825 0.142 10.078-0.187 1.069-0.335 2.57-0.34 3.443-0.005 0.982-0.074 1.613-0.189 1.728-0.242 0.241-3.597 0.34-4.25 0.124-0.422-0.139-0.552-0.117-0.894 0.152-0.497 0.391-1.687 0.419-3.637 0.083-1.923-0.33-2.914-0.643-3.128-0.986-0.29-0.464-1.523-0.419-2.015 0.074-0.58 0.58-0.472 1.156 0.291 1.554 0.39 0.204 1.016 0.25 3.532 0.26 3.020 0.012 3.063 0.017 3.449 0.38 0.441 0.415 0.523 1.138 0.181 1.605-0.202 0.276-0.317 0.28-2.922 0.098-3.476-0.242-4.627-0.41-5.346-0.776-0.71-0.362-1.291-1.029-1.532-1.759-0.424-1.284 0.676-2.962 2.277-3.478 0.459-0.148 0.855-0.286 0.881-0.307s0.147-0.803 0.269-1.737c0.273-2.088 0.726-3.418 1.811-5.317 0.627-1.098 0.888-1.742 1.045-2.585 0.314-1.676 0.277-1.843-0.434-1.991-0.328-0.068-0.824-0.297-1.102-0.509-0.619-0.472-0.802-0.428-2.32 0.563l-1.137 0.742 0.785-0.76c0.431-0.418 0.736-0.76 0.677-0.76s-0.481 0.128-0.936 0.284c-1.545 0.53-1.743 0.48-0.525-0.131 0.667-0.335 1.042-0.579 0.834-0.543-1.54 0.268-1.57 0.243-0.311-0.261 0.704-0.282 1.304-0.585 1.334-0.672s-0.095-0.593-0.277-1.124c-0.438-1.276-0.472-3.386-0.071-4.375 0.176-0.435 0.314-1.301 0.379-2.39 0.124-2.067 0.254-2.27 0.994-1.553 0.292 0.283 0.702 0.762 0.912 1.064l0.381 0.55 1.173-0.192c0.645-0.106 1.523-0.196 1.95-0.2 1.389-0.014 1.627-0.116 1.919-0.821 0.145-0.351 0.473-0.891 0.728-1.201zM30.355 5.731c-0.873 0.31-1.234 0.71-1.543 1.713-0.096 0.312-0.067 0.332 0.36 0.246 0.524-0.105 0.92 0.136 0.92 0.559 0 0.421-0.435 0.777-0.806 0.659-0.305-0.097-0.308-0.085-0.082 0.26 1.136 1.731 3.755 1.13 4.031-0.925 0.044-0.325 0.036-0.764-0.017-0.976-0.139-0.553-0.934-1.403-1.421-1.519-0.228-0.054-0.518-0.126-0.643-0.16s-0.484 0.030-0.797 0.141zM25.454 6.418c-0.328 0.133-1.125 0.994-1.125 1.217 0 0.070-0.041 0.235-0.092 0.367-0.069 0.179 0.003 0.24 0.285 0.24 0.764 0 0.956 0.82 0.272 1.161l-0.367 0.183 0.493 0.46c0.654 0.61 1.352 0.735 2.092 0.372 1.149-0.563 1.582-1.909 0.994-3.086-0.426-0.853-1.634-1.286-2.552-0.914zM38.202 7.523c-0.882 0.369-0.912 0.388-0.798 0.502 0.089 0.089 1.632-0.64 1.632-0.771 0-0.040-0.017-0.068-0.038-0.061s-0.379 0.155-0.796 0.33zM39.15 8.039c0.104 0.042 0.275 0.042 0.379 0s0.019-0.076-0.19-0.076-0.294 0.034-0.19 0.076zM9.348 10.327c0.028 0.146 0.152 0.265 0.274 0.265s0.246-0.119 0.274-0.265c0.036-0.186-0.046-0.265-0.274-0.265s-0.31 0.079-0.274 0.265zM27.598 10.871c-0.236 0.173-0.239 0.213-0.029 0.387 0.263 0.218 0.551 0.108 0.551-0.211 0-0.316-0.227-0.393-0.522-0.177zM27.681 12.286c-0.158 0.347-0.153 0.379 0.032 0.225 0.119-0.099 0.345-0.133 0.501-0.076 0.276 0.101 0.276 0.094-0.004-0.225-0.159-0.181-0.301-0.329-0.317-0.329s-0.111 0.182-0.212 0.404z"></path>
<path d="M7.081 0.128c0.937-0.212 3.201-0.151 4.171 0.113 2.935 0.797 5.498 3.361 6.285 6.287 0.29 1.079 0.351 2.928 0.131 4.012-0.181 0.894-0.66 2.24-0.903 2.537-0.093 0.113 0.551 0.826 2.738 3.029 2.654 2.675 2.869 2.921 2.996 3.443 0.177 0.722 0.075 1.299-0.337 1.922-0.655 0.989-1.987 1.341-3.025 0.799-0.251-0.131-1.657-1.442-3.122-2.913l-2.665-2.674-0.96 0.385c-1.729 0.694-3.424 0.879-5.099 0.557-4.845-0.932-8.052-5.594-7.135-10.371 0.688-3.585 3.339-6.313 6.925-7.124zM7.265 2.53c-1.115 0.306-2.035 0.857-2.936 1.759-1.422 1.422-2.012 2.949-1.901 4.924 0.101 1.821 0.793 3.268 2.151 4.497 1.345 1.219 2.924 1.762 4.769 1.642 1.753-0.114 3.119-0.77 4.354-2.090 2.588-2.767 2.241-7.149-0.754-9.529-0.694-0.552-1.788-1.069-2.642-1.249-0.8-0.169-2.341-0.146-3.039 0.046z"></path>

</symbol>
</defs>
</svg>
